<?xml version="1.0" encoding="UTF-8"?>
<svg xmlns="http://www.w3.org/2000/svg" viewBox="0 0 500 500">
  <defs>
    <style>
      .cls-1 {
        fill: #c22026;
      }

      .cls-2 {
        fill: #919191;
      }

      .cls-3 {
        fill: #931b23;
      }

      .cls-4 {
        fill: #e5e5e5;
      }

      .cls-5 {
        fill: #b5b5b6;
      }

      .cls-6 {
        fill: #e41e26;
      }
    </style>
  </defs>
  <g id="Layer_5" data-name="Layer 5">
    <path class="cls-5" d="M474,149.89c0,1.11-3,12.11-3,13.11s0,9-1,10,1,8,1,9,3.89,9.11,3.94,9.05,6.06,9.95,6.06,9.95l10,7s-3,3-4,3-16,7-16,7l-14,9-17,11s-5.69,3.16-5.85,3.08,1.45-3.28,1.65-4.68-1.51-4.73-1.66-6.06-2.14-3.33-3.14-4.33l-3-3c-1-1-5.06-6.28-6.53-7.14s-1.4-2.34-2.43-4.1-1.77-3.42-1.4-4.59-1.21-1.75-.92-2.96-1.74-12.75-1.72-13.98-.77-6.94-.38-7.59.29-1.72.34-2.68.76-.98,1.91-3.47,2.15-2.49,3.15-3.49,2-1,3-2,3,0,4-1,5.03-1.82,6.51-1.91,3.23-.35,4.36-.22,3.51.91,4.82-.48,5.31-1.39,5.31-1.39c0,0,3.5-.04,4.75-.02s2.25.02,3.25-.98,4-1,5-2,1.86-2.13,2.43-3.06,2.51-2.52,2.54-2.23,3.03-.71,3.03-1.71,4-6,4-6l1-.11Z"/>
    <path class="cls-5" d="M417,263c0,1-5.5,10.4-5.25,10.7s-2.75,7.3-2.75,7.3l-2,9v7.76c0,1.24,3,8.24,3,8.24,0,0,6,15,7,15s5,12,5,12l-1,8s-2,6-3,7-6,7-6,7c0,0-5,3-6,3s-7,2-8,2-13,0-13,0l-11-3-20-6-39-14-35-13-24-6-20-4s-20.74-3-20.87-2.5-17.13.5-18.13.5-20,3-20,3c0,0-2.32,1.13-2.16,1.06s2.16,5.94,2.16,5.94l10,18,14,17s-10-1-10-2-11-3-12-3-22,0-22,0c0,0-18,4-19,4s-17,5-17,5c0,0-10,6-11,6s-7,3-7,3h-6.13l-4.78-3.65-1.08-9.35s5-8,5-9,8-7,8-8,5-4,4-4-6-1-6-1c0,0-4.62-4.97-4.31-4.99s-1.69-9.01-1.69-9.01l5-12,1-15s-2-18-3-18-1-17-1-17c0,0,5-16,5-17s3-9,3-9c0,0,3.9-1.13,4.45-2.57s16.55-7.43,17.55-7.43,27-8,27-8l22.68-3.15s16.32-2.85,17.32-2.85,29.6,0,29.8,0,7.07.61,7.64.81,24.56,7.19,24.56,7.19l23,15s15,12,16,12,16,11,16,11c0,0,24,14,24,13s24,6,24,6c0,0,23,1,24,1s17-4,17-4c0,0,13.99-5.27,13.5-5.14s2.5-2.86,2.5-2.86Z"/>
  </g>
  <g id="putih_gelap" data-name="putih gelap">
    <path class="cls-2" d="M166.71,303.41c-2.42-.23-4.9-.48-7.05-1.61s-3.9-3.37-3.71-5.79c.28-3.54,4.17-5.46,7.5-6.69,8.85-3.26,17.7-6.53,26.55-9.79-5.63-.32-11.23-1.26-16.66-2.8-1.57-.45-3.27-1.06-4.09-2.47-1.02-1.75-.19-4.11,1.32-5.46,1.52-1.35,3.54-1.93,5.5-2.47,8.67-2.41,17.34-4.81,26.01-7.22-10.81.17-21.63-.89-32.2-3.16-2.19-.47-4.43-1.02-6.27-2.31-1.83-1.29-3.18-3.51-2.82-5.72.54-3.26,4.18-4.86,7.32-5.88,13.3-4.28,26.78-8.02,40.39-11.19-10.64-1.09-21.21-2.83-31.64-5.2-1.34-.3-2.87-.79-3.35-2.07-.76-2.03,1.7-3.71,3.73-4.47,11.36-4.28,22.99-7.81,34.82-10.55l-80.88,15.86c-8.7,4.13-19.94,3.35-27.13,9.34-.53,1.9-1.01,3.82-1.36,5.88-.85,5-2.02,9.61-4.14,14.23-.12.26-.25.49-.39.71-.13,1.91-.03,3.85.43,5.84.39,1.7-.04,3.13-.89,4.19.6,4.59,1.41,9.18,1.95,13.75.37,3.14.59,6.3.7,9.46.67,1.52.94,3.28.91,4.8,0,.1-.01.19-.02.28,1.03,2.63,1.64,5.28,1.09,8.15-.53,2.78-1.72,5.39-1.37,8.28.12.97-.83,1.79-1.72,1.91-.02.28-.04.56-.05.84-.03.69-.36,1.26-.88,1.6-.8,4.1-1.82,8.27-1.18,12.39.64,4.13,3.45,8.28,7.58,8.96,3.84.64,7.43-1.76,10.76-3.78,6.16-3.74,12.79-6.47,19.67-8.51,6.35-2.96,13.39-4.69,20.17-6.26,3.33-.77,6.61-1.79,10.04-2.01,3.97-.25,8,.42,11.96.61.22.01.42.05.62.08.61-.27,1.32-.42,2.13-.4,1.15.02,2.31,0,3.46-.03.5-.41,1.13-.74,1.88-.94,8.42-2.3,17-2,25.63-2.37,1.28-.05,2.3.3,3.06.9,4.19-.85,8.34-1.88,12.42-3.2-19.93-1.91-39.87-3.81-59.8-5.72Z"/>
    <path class="cls-2" d="M157.45,215.63c-15.77,2.84-31.12,8.02-45.38,15.33,3.36.98,6.94.1,10.32-.79,25.12-6.58,50.23-13.16,75.35-19.74"/>
    <path class="cls-2" d="M207,207.11c-10.94.84-21.73,3.64-31.7,8.23,14.38-2.39,28.76-4.78,43.14-7.17"/>
    <path class="cls-2" d="M165.41,315.8c-3.38.64-6.67,1.76-9.74,3.31-1.04.52-2.22,1.38-2.06,2.54.14,1.09,1.37,1.64,2.42,1.96,4.63,1.38,9.45,2.11,14.28,2.16-4.37,1.38-8.74,2.77-13.11,4.15-1.09.34-2.22.71-3.03,1.51s-1.2,2.16-.54,3.1c.46.65,1.27.93,2.03,1.16,3.87,1.17,7.82,2.08,11.81,2.7-6.92.96-13.87,2.36-20.15,5.43-.8.39-1.62.83-2.16,1.54s-.74,1.76-.24,2.49c.47.69,1.37.91,2.19,1.06,5.95,1.14,11.99,1.76,18.04,1.86-8.8,1.14-17.59,2.29-26.39,3.43-.9.12-1.84.23-2.68-.11-1.4-.57-2.02-2.18-2.47-3.62-2.06-6.58-3.74-13.28-5.01-20.06-.37-1.97-.66-4.19.49-5.84,1.02-1.45,2.87-2.02,4.59-2.49,4.83-1.33,9.67-2.66,14.5-3.99"/>
    <path class="cls-2" d="M129.24,324.2c-7.54,5.07-16.51,7.99-23.38,13.95-3.87,3.36-6.91,7.56-9.91,11.72-1.92,2.66-3.89,5.42-4.6,8.63-.51,2.28-.33,4.73.67,6.84s2.87,3.83,5.1,4.49c1.96.58,4.06.34,6.05-.12,11.28-2.64,20.02-12.22,31.36-14.58,1.09-.23,2.22-.39,3.22-.88s1.9-1.38,2.03-2.49-.74-2.34-1.85-2.28"/>
    <path class="cls-2" d="M354.33,274.85c.97,2.71,3.73,4.41,6.49,5.21s5.69.94,8.47,1.72c6.22,1.74,11.14,6.52,14.93,11.75,3.78,5.23,6.71,11.05,10.63,16.18,3.01,3.93,6.57,7.42,9.55,11.37s5.42,8.54,5.68,13.49c.28,5.35-2.08,10.59-5.51,14.7s-7.91,7.23-12.46,10.05c8.82,1.56,18.36-1.96,24.05-8.88,5.69-6.92,7.3-16.96,4.06-25.32-2.55-6.57-7.72-11.84-10.44-18.34-2.9-6.95-2.78-14.87-1.06-22.2s4.94-14.21,8.14-21.03c-.5,1.07-4.5,2.31-5.6,2.8-2.02.92-4.07,1.76-6.16,2.51-4.11,1.49-8.33,2.67-12.61,3.52s-8.64,1.38-13,1.57-8.58-.52-12.79-.18-8.34.4-12.38,1.07Z"/>
    <path class="cls-2" d="M469.61,153.77c1.23,11.26-4.51,23-14.15,28.94,3.04-.73,6.08-1.46,9.12-2.19.29,2.63-1.74,4.95-3.9,6.49s-4.65,2.78-6.12,4.98c6.14-1.09,12.43-2.17,18.58-1.13-5.38-12.67-5.02-27.66.98-40.05"/>
    <path class="cls-2" d="M425.2,170.68c2.29.17,4.38,1.9,4.97,4.11.61,2.28-.27,4.66-.99,6.92s-1.25,4.83-.07,6.88c.74,1.27,2.02,2.1,3.09,3.12s1.97,2.45,1.61,3.88c-.37,1.42-1.93,2.81-1.14,4.05.4.62,1.23.79,1.96.88,6.58.81,13.31.19,19.7-1.59-6.1,2.98-10.9,8.09-15.09,13.44-3,3.82-5.76,7.83-8.27,11.98-4.99-2.99-9.69-6.97-11.91-12.35-2.63-6.36-1.44-13.71-3.49-20.28-1.01-3.24-2.83-6.49-2.17-9.83.72-3.67,4.14-6.08,7.3-8.1"/>
    <path class="cls-2" d="M198.27,293.26c31.85-.11,61.43,14.97,91.33,25.93,9.25,3.39,18.63,6.41,28.01,9.42,20.05,6.45,40.1,12.89,60.15,19.34-18.11-7.92-36.22-15.84-54.34-23.76,10.56-2.58,21.12-5.15,31.68-7.73-15.94-5.85-34.34-.35-50.31-6.12-16.62-6.01-28.31-23.44-45.85-25.61,5.36,6.88,11.92,12.81,19.3,17.46-13.52-7.47-28.04-13.11-43.06-16.73,2.01.49,4.55,2.94,6.37,4.02,2.24,1.33,4.53,2.59,6.85,3.78,4.7,2.41,9.58,4.28,14.42,6.37-4.26.4-8.5-1.2-12.53-2.32-5.62-1.56-11.34-2.76-17.11-3.58-11.55-1.65-23.31-1.82-34.9-.46Z"/>
    <path class="cls-2" d="M321.11,259.6c-2.6,5.75-7.53,10.4-13.42,12.66,2.99,1.26,6.13,2.56,9.36,2.26,6.47-.59,11.18-7.25,17.66-7.72"/>
  </g>
  <g id="Layer_9" data-name="Layer 9">
    <path class="cls-4" d="M377.48,336.73c3.81,2.67,9.53,2.1,12.74-1.27s3.49-9.11.64-12.78c-1.42-1.82-3.44-3.11-4.83-4.95-1.88-2.5-2.38-5.74-3.49-8.66-1.93-5.12-5.71-9.29-9.4-13.33-2.53-2.77-5.29-5.68-8.94-6.56-3.27-.79-6.7.2-10.06.12-4.96-.12-9.52-2.53-14.01-4.63-2.12-.99-4.36-1.95-6.7-1.87-1.88.07-3.65.8-5.46,1.32-6.75,1.93-13.95.84-20.88-.27.06,2.55,2.22,4.65,4.61,5.52s5.01.81,7.56.85c11.19.2,22.33,2.88,32.4,7.78,4.31,2.1,8.59,4.77,11.03,8.89,1.5,2.54,2.23,5.52,4,7.87,1.7,2.26,4.46,4.34,4.07,7.15-.32,2.25-2.58,3.66-3.59,5.69-.83,1.66-.73,3.75.25,5.32s2.81,2.58,4.67,2.57"/>
    <path class="cls-4" d="M291.75,249.95c-14.97-13.9-32.93-24.56-52.3-31.04-6.31-2.11-12.81-3.79-19.45-4.12-9.04-.45-18.19,1.66-26.12,6.03,6.54-1.13,13.27-2.27,19.76-.87,6.06,1.31,11.44,4.73,17.37,6.56,5.02,1.55,10.33,1.91,15.44,3.14s10.27,3.57,13.2,7.93c.95,1.42,1.62,3.33.73,4.79-1.25,2.04-4.31,1.55-6.54.68-8.49-3.32-16.78-8.63-25.87-7.92-3.27.25-6.42,1.29-9.53,2.32-8.14,2.69-16.28,5.38-24.42,8.07,15.55.86,31.09-5.22,46.49-2.9,11.5,1.73,21.75,7.96,31.61,14.12,3.41,2.13,6.82,4.27,10.23,6.41,8.12,5.1,16.25,10.19,24.37,15.29-4.76-5.63-9.52-11.27-14.28-16.9-.82-.97-1.66-2.37-.91-3.39.62-.84,1.89-.75,2.92-.57,4.4.77,8.8,1.53,13.19,2.3-2.9-1.81-5.79-3.62-8.69-5.42"/>
    <path class="cls-4" d="M256.03,262.21c-7.65.22-15.25,1.84-22.9,1.49-5.62-.26-11.19-1.59-16.81-1.25-6.54.39-12.91,3.12-17.71,7.57,8.98-2.07,18.33-1.56,27.53-1.05,8.33.47,16.67.93,25,1.4-5.03,2.28-10.06,4.56-15.09,6.84,11.5-3.55,24.27-2.89,35.3,1.93,14.5,6.35,25.97,19.52,41.52,22.47-4.39-8.56-15.86-11.19-21.12-19.24-1.97-3.02-3.16-6.86-6.32-8.59-2.46-1.35-5-1.69-7.14-3.69-1.68-1.57-2.96-3.13-5.01-4.31-5.16-2.98-11.39-3.74-17.25-3.57Z"/>
  </g>
  <g id="Layer_2" data-name="Layer 2">
    <path class="cls-1" d="M449.5,84.5s-3,5-3,6,1,11,1,11l9,13,14,15,4,11s1,7.52,0,8.76-5.97,7.65-6.99,8.44-17.01,8.79-17.01,8.79l-12,1s-9,2-10,2-9,5-9,5l-5,6,1,20s3,9,3,10,7,12,8,12,7,10,8,10,2,7,1,7-4,7-4,7l-12,13s-6,6-7,6-9,5-9,5l-19,4h-21s-21-5-21-5l-21-10-23-14-19-14s-20.99-13.49-20.5-13.24-14.5-6.76-14.5-6.76l-25-3-30,2-35,4s-26,9-27,9-19,8-20,8,0-4.47,0-4.23,6-14.77,5-15.77,0-16,0-17-4-12-4-13-12-14-12-14c0,0-6-6-6-7s-1-7-1-8,2-9,3-9,12-12,12-12l18-8s18-3,19-3,24,3,24,3c0,0,22,6,23,6s29,8,29,8l26,1,24-5s19-3,20-4,15,0,15,0c0,0,21,13,21,12s-2-7-2-8,.41-7.28.41-7.28l3.59-4.72,8-5s12-3,13-3,26-5,26-6,34-10,34-10l30-10,13-3Z"/>
  </g>
  <g id="merah_gelap" data-name="merah gelap">
    <path class="cls-3" d="M379.83,143.07c-7.63-2.15-15.45-3.63-23.34-4.4,11.25,3.57,22.08,8.46,32.2,14.54-6.31-2.52-12.81-4.58-19.42-6.15,7.78,2.82,14.79,7.77,20.05,14.16,1.54,1.87,2.96,3.93,3.5,6.29s0,5.09-1.84,6.66c-2.64,2.25-6.65,1.35-9.91.17-9.06-3.28-17.63-7.76-26.16-12.23,4.93,3.96,9.85,7.93,14.78,11.89-11.23-4.99-21.96-11.12-31.97-18.26,2.7,4.14,6.33,7.58,9.92,10.98,4.24,4.01,8.49,8.04,13.22,11.46,4.42,3.19,9.29,5.86,14.56,7.27s10.96,1.54,16.13-.23c5.72-1.95,10.62-6.27,13.13-11.76s2.52-12.11-.12-17.54-7.93-9.54-13.88-10.59"/>
    <path class="cls-3" d="M323.19,136.07c14.54,14.81,30.52,28.21,47.64,39.95-7.25-1.65-14.66-3.38-20.88-7.45-3.94-2.58-7.25-6.01-10.51-9.41-5.72-5.95-11.46-11.93-16.3-18.62"/>
    <path class="cls-3" d="M403.63,269.61c4.1-1.75,7.29-5.18,9.54-9.02s3.66-8.11,5.06-12.33c1.41-4.27,2.8-9.02.97-13.13-1.92-4.31-6.71-6.43-11.09-8.17,1.65.91,3.87.08,4.95-1.46s1.21-3.58.88-5.44-1.05-3.61-1.56-5.43c-2.27-8.09-.11-16.69,2.06-24.81-1.92,12.1,3.01,24.97,12.26,33.01,2.14,1.86,4.55,3.56,5.86,6.07,1.29,2.49,1.32,5.42,1.18,8.22-.17,3.66-.59,7.39-2.21,10.68-1.91,3.88-5.32,6.77-8.63,9.54-2.53,2.12-5.07,4.25-7.6,6.37-.9.75-2,1.55-3.13,1.23-.17.32-.35.64-.52.97"/>
    <path class="cls-3" d="M318.83,258.9c3.23.85,6.56,1.3,9.89,1.34.76,0,1.64-.06,2.1-.67.72-.96-.17-2.27-1.04-3.1-5.84-5.62-12.51-10.39-19.72-14.1-.9-.46-1.96-1.5-1.31-2.28.52-.62,1.54-.22,2.32-.42,1.09-.29,1.46-1.77.98-2.8s-1.48-1.68-2.43-2.27c-7.13-4.45-14.26-8.9-21.38-13.35,3.94-.22,7.73,1.4,11.23,3.22,6.1,3.16,11.82,7,17.53,10.83,7.61,5.11,15.23,10.22,22.84,15.33.69.46,1.46,1.07,1.45,1.9,0,.73-.62,1.31-.81,2.02-.35,1.29.75,2.48,1.77,3.34,7.52,6.33,16.08,11.42,25.24,14.99-11.82,1.38-23.3-3.82-34.07-8.89"/>
    <path class="cls-3" d="M343.65,266.19c-5.58-1.96-11.3-3.94-17.22-3.88,4.94,3.09,10.28,5.54,15.84,7.27"/>
    <path class="cls-3" d="M440.89,102.16c3.33,7.59,8.25,14.37,13.19,21.03,2.12,2.86,4.25,5.71,6.39,8.56-4.51-1.2-9.29-1.38-13.88-.52,2.3-.81,3.46-3.77,2.54-6.02s-3.6-3.55-6-3.12c1.21-.2,2.27-1.13,2.62-2.3.42-1.4-.26-2.3-.89-3.45-.75-1.36-1.17-3.01-1.63-4.49-1-3.18-1.78-6.42-2.34-9.7Z"/>
    <path class="cls-3" d="M396.76,100.89c-2.85.86-5.11,3.43-5.58,6.37-.22,1.35-.08,2.73-.26,4.08s-.75,2.77-1.95,3.43c-1.43-3.01-4.6-4.88-7.86-5.59s-6.63-.41-9.95-.11c6.57-2.35,13.01-5.05,19.29-8.1"/>
    <path class="cls-3" d="M343.8,113.65c-1.62,1.03-3.59,1.31-5.33,2.12s-3.36,2.54-2.96,4.42c.37,1.74,2.23,2.68,3.91,3.26,7.29,2.52,15.12,2.9,22.82,3.26-4.1,1.07-8.21,2.13-12.31,3.2,11.46,2.53,23.15,4,34.88,4.4-2.02.52-3.96,1.4-5.68,2.58,7.1,2.93,14.2,5.87,21.3,8.8-3.02.64-6.15-.04-9.17-.73-22.17-5.01-44.35-10.03-66.52-15.04-1.11-.25-2.33-.58-2.93-1.54-.68-1.09-.26-2.53.32-3.68,1.78-3.48,5.03-6.18,8.77-7.31"/>
    <path class="cls-3" d="M169.45,123.91c7.67,2.83,15.35,5.65,23.02,8.48-14.34-3.34-29.47-3.21-43.74.37-5.69,1.43-11.92,4.01-13.99,9.5,6.28-.18,12.55-.35,18.83-.53-11.42.87-22.04,8.6-26.39,19.19-1.6,3.9-2.38,8.31-1.13,12.34,1.42,4.55,5.28,8.02,9.59,10.06s9.08,2.86,13.78,3.65c-1.4,1.16-3.35,1.32-5.16,1.34s-3.72-.04-5.33.8-2.71,2.96-1.78,4.52c.6,1,1.79,1.44,2.9,1.79,18.81,6.03,38.92,7.99,58.54,5.7-2.45,1.37-4.9,2.74-7.36,4.11,4.55,1.77,9.39,2.77,14.27,2.94-21.72,1.8-43.32,4.98-64.63,9.5-2.39.51-4.94,1.02-7.23.16-3.44-1.31-5.03-5.18-6.25-8.65-6.97-19.9-13.94-39.8-20.91-59.7-1.65-4.71-3.3-9.93-1.43-14.56,2.23-5.54,8.55-8.06,14.32-9.6,7.4-1.98,14.98-3.34,22.61-4.04"/>
    <path class="cls-3" d="M138.91,218.56c-10.91,4.4-21.82,8.81-32.72,13.21,3.52-9.17,6.58-18.68,6.99-28.49s-2.07-20.07-8.53-27.47c-2.59-2.97-5.73-5.4-8.48-8.21s-5.19-6.17-5.82-10.06c-.57-3.48.36-7.06,1.76-10.3,3.62-8.36,10.53-15.25,18.91-18.84-2.9,2.39-4.49,6.1-4.95,9.83s.11,7.51.89,11.19c3.07,14.41,9.45,27.88,15.77,41.19,3.37,7.1,6.74,14.19,10.11,21.29.5,1.06,1.03,2.16,1.93,2.92s2.28,1.08,3.26.44"/>
    <path class="cls-3" d="M102.07,153.12c1.58,8.84,5.67,17.21,11.67,23.89.66.73,1.58,1.51,2.5,1.18,1.04-.37,1.16-1.78,1.01-2.87-.82-6.07-4.04-11.52-7.18-16.78"/>
    <path class="cls-3" d="M100.59,155.3c.49,4.27,3.37,8.19,7.29,9.94,2.29,1.02,5.36,1.16,6.95-.78,1.13-1.38,1.14-3.33,1.03-5.1-.31-5.19-1.14-10.36-2.47-15.39"/>
    <path class="cls-3" d="M277.02,144.62c-9.46,4.05-20.1,4.57-30.35,3.56-10.25-1.01-20.29-3.46-30.45-5.13,1.49.25,3.82-.62,5.38-.71,1.95-.12,3.92-.08,5.86.1,3.86.36,7.21,1.5,10.8,2.75s7.9,1,11.61,1.12c4.22.13,8.45.07,12.67-.16,4.84-.27,9.67-.78,14.47-1.53Z"/>
    <path class="cls-3" d="M396.9,189.99c-2.61,2.23-3.94,5.6-4.82,8.92s-1.42,6.76-2.86,9.87c-.31.67-.75,1.39-1.48,1.52-.76.14-1.49-.46-1.79-1.17s-.32-1.5-.41-2.26c-.34-2.86-1.94-5.54-4.31-7.19-2.88-2-6.54-2.39-9.89-3.4-5.55-1.67-10.37-5.12-15.07-8.51-.26,1.51.19,3.12,1.19,4.28-1.81.83-3.76-.76-5.12-2.22-7.27-7.79-14.55-15.57-21.82-23.36,2.68,2.15,5.36,4.29,8.13,6.33,10.99,8.12,23.23,14.55,36.16,18.98-.29,1.33,1,2.59,2.34,2.76s2.66-.45,3.84-1.13c2.46-1.44,4.4-2.03,7.22-2.37,1.52-.18,3.04-.36,4.56-.55.86-.1,3.51.04,4.14-.5Z"/>
    <path class="cls-3" d="M229.63,200.02c14.34.64,28.02,5.92,41.4,11.12-1.57-.61-3.14-2.22-4.65-3.06-1.74-.97-3.54-1.8-5.38-2.56-3.1-1.28-6.3-2.44-9.49-3.49-6.85-2.26-14.75-2.41-21.88-2.01Z"/>
    <path class="cls-3" d="M162.88,172.39c9.37-.44,18.78.17,28.02,1.8-15.39.18-30.77.37-46.16.55,5.13-.98,10.27-1.96,15.4-2.95"/>
  </g>
  <g id="merah_gilap" data-name="merah gilap">
    <path class="cls-6" d="M382.16,254.92c1.32.96,1.79,2.7,2.02,4.32s.32,3.33,1.2,4.71c.33.52.87,1.02,1.49.93.53-.08.9-.58,1.12-1.07,1.2-2.61.15-5.83,1.31-8.46,1.22-2.77,4.41-3.97,7.2-5.14,4.26-1.77,8.3-4.07,12.01-6.81.44-.33.93-.75.91-1.3-.02-.81-1.04-1.15-1.85-1.27-1.85-.27-3.69-.53-5.54-.8-.8-.12-1.75-.35-2.01-1.11-.21-.6.13-1.24.44-1.79,1.22-2.11,2.4-4.24,3.54-6.39.84-1.59,1.69-3.35,1.34-5.12-6.19.67-12.42,1.35-18.38,3.14-3.14.94-6.24,2.2-9.52,2.33-6.33.24-12.62-3.78-18.73-2.07,1.71,4.01,5.19,7.23,9.33,8.61,1.03.34,2.13.6,2.97,1.28s1.31,2,.67,2.88c-.66.91-2,.86-3.12.77-4.27-.34-8.62.22-12.66,1.64-1.12.39-2.42,1.16-2.32,2.34.07.89.97,1.51,1.85,1.69s1.79.06,2.68.18c2.96.41,4.89,3.33,7.6,4.58,1.84.85,3.93.89,5.96.91,2.73.03,5.45.06,8.18.09"/>
    <path class="cls-6" d="M307.18,181.46c3.7,3.74,6.17,8.63,10.22,11.99,3.99,3.31,9.12,4.82,13.77,7.13,7.6,3.77,14.04,9.82,18.27,17.17-9.06,2.55-18.02-3.75-25.33-9.69-7.31-5.94-16.22-12.28-25.3-9.8-1.81.49-3.81,1.81-3.59,3.67.17,1.47,1.64,2.37,2.94,3.06,5.52,2.9,11.03,5.79,16.55,8.69-6.93.57-13.65-2.62-19.36-6.59s-10.83-8.81-16.88-12.26c-12.95-7.38-28.61-7.64-43.51-7.7-6.22-.03-12.43-.05-18.65-.08-2.09,0-4.43.08-5.88,1.59s-.66,4.81,1.42,4.62c-15.67-1.87-31.21-4.88-46.45-8.99,12.37-1.1,24.36-6.03,33.93-13.94-1.6-1.07-3.2-2.15-4.8-3.22,1.97-.07,2.69-2.98,1.53-4.57s-3.25-2.14-5.17-2.57c-9.73-2.2-19.47-4.4-29.2-6.6-1.72-.39-3.88-1.36-3.65-3.11.2-1.53,2.08-2.1,3.61-2.32,18.18-2.57,36.69-2.87,54.95-.91.91.1,1.86.21,2.65.68,2.23,1.33,1.98,4.91.17,6.78s-4.52,2.47-7.07,2.99c8.77,3.63,17.85,6.47,27.12,8.49,2.55.56,5.35,1.02,7.68-.17s3.52-4.76,1.53-6.46c9.38-1.98,18.76-3.95,28.13-5.93,4.59-.97,9.2-1.94,13.88-2.3,7.62-.59,15.52.51,22.21,4.22-2.07,4.89-11.19,2.41-13.43,7.22-.58,1.23-.51,2.68-1.01,3.95-1.12,2.83-4.66,3.84-7.71,3.73s-6.12-.96-9.1-.3c-1.66.37-3.36,1.39-3.76,3.04-1.52,6.31,10.77,5.28,13.83,4.81,6.04-.93,10.71-1.13,15.46,3.68Z"/>
    <path class="cls-6" d="M400.27,99.17c1.94-1.33,4.74-.56,6.42,1.09s2.51,3.95,3.29,6.18c1.72,4.93,3.45,9.85,5.17,14.78,3.68-4.11,7.44-8.29,12.16-11.14.89-.54,1.84-1.04,2.52-1.84s1.02-1.99.51-2.9c-.57-1.04-2.07-1.53-2.17-2.71-.09-1.05,1.01-1.76,1.96-2.22,1.69-.82,3.38-1.64,5.08-2.45.27-.13.6-.27.87-.13.38.18.39.7.34,1.12-.36,3.36-.71,6.72-1.07,10.07.41-2.62.88-5.36,2.54-7.43,1.25-1.56,3.05-2.58,4.47-3.99,3.41-3.4,4.17-8.56,4.76-13.34-7.95,3.42-16.12,6.31-24.44,8.66"/>
    <path class="cls-6" d="M413.14,112.37l-.67,11.14c-.05.79-.02,1.74.66,2.16.56.35,1.33.11,1.8-.36s.69-1.12.9-1.74c1.48-4.38,2.97-8.76,4.45-13.13"/>
    <path class="cls-6" d="M453.79,139.51c1.93.17,3.34,2.18,3.31,4.12s-1.18,3.71-2.62,5.01c-1.98,1.79-4.57,2.88-7.23,3.06-2.84.19-5.74-.64-8.5.04-4.42,1.08-7.03,5.52-10.69,8.22-1.66,1.22-3.89,2.1-5.74,1.21-3.06-1.47-2.57-6.16-4.84-8.69-2.22-2.47-6.51-2.25-8.5-4.9-1.22-1.62-1.19-3.82-1.86-5.73-1.02-2.93-3.65-5.06-6.52-6.21s-6.01-1.46-9.09-1.76c2.5-2.39,5-4.78,7.49-7.16.41-.39.89-.81,1.46-.8,1.15.03,1.43,1.56,1.72,2.67.58,2.21,2.42,3.85,4.29,5.16s3.91,2.5,5.26,4.34c.97,1.33,1.52,2.93,2.48,4.26s2.6,2.41,4.19,1.98c1.52-.42,2.38-2.06,2.62-3.62s.03-3.16.29-4.71,1.2-3.17,2.74-3.5c1.67-.36,3.3,1,3.93,2.58s.53,3.35.55,5.05.23,3.53,1.32,4.84c1.9,2.29,5.63,1.96,8.17.41s4.4-4,6.78-5.78,5.81-2.82,8.28-1.15c-.09-.34-.18-.68-.27-1.02"/>
  </g>
  <g id="ingking">
    <path d="M115.31,155.28c-1.64.83-3.52,1.2-5.35,1.07-.17-.01-.36-.05-.43-.2-.08-.18.07-.37.22-.49,1.34-1.08,3.99-.44,5.57-.38Z"/>
    <path d="M115.25,159.22c-.7.51-1.46.95-2.26,1.3-1.04.46-3.34,1.48-4.45.93.34-.66,1.62-.98,2.27-1.23,1.43-.53,2.91-.95,4.44-1.01Z"/>
    <path d="M115.73,165.29c.15.26.04.61-.18.82s-.51.31-.8.4c-.28.09-.57.18-.85.28-1,.32-2,.65-3,.97.76-.48,1.42-1.08,2.18-1.56.31-.2,2.47-1.2,2.65-.9Z"/>
    <path d="M117.13,168.98c-.73,1.93-2.78,3.28-4.84,3.18-.02,0,.73-1.12.84-1.22.36-.34.8-.59,1.19-.9.85-.68,1.66-1.16,2.82-1.06Z"/>
    <path d="M123.57,200.96c5.39-.35,10.8-.53,16.2-.52-5.54,1.81-11.45,2.05-17.27,2.28-.57.02-1.28-.05-1.47-.59-.12-.34.06-.72.33-.95s.62-.35.96-.45"/>
    <path d="M142.39,202.53c-2.42,1.27-5.23,1.49-7.96,1.68-2,.14-3.99.28-5.99.42-1.25.09-3.09.56-4.3.21,1.17-1.41,4.81-1.34,6.43-1.46l5.95-.43,2.98-.21c.51-.04,2.55.12,2.88-.21Z"/>
    <path d="M323.72,244.75c-1.04-.77-2.29-1.27-3.58-1.42,2.03,1.59,4.3,2.88,6.71,3.82"/>
    <path d="M314.46,235.1c-1.73-1.27-3.58-2.39-5.51-3.32,2.84,2.42,5.98,4.5,9.32,6.18"/>
    <path d="M333.39,253.79l-5.27-2.33c3.52,1.92,7.05,3.83,10.57,5.75"/>
    <path d="M338.35,258.01c-2.37-1.41-4.84-2.68-7.37-3.78,3.51,2.51,7.26,4.68,11.19,6.46"/>
    <path d="M347.16,270.42c.72-.12,1.1-1,.95-1.72s-.69-1.28-1.22-1.78c-1.31-1.23-2.76-2.32-4.3-3.24,3.44,1.54,6.76,3.34,9.92,5.39-.64.92-1.12,1.94-1.42,3.02"/>
    <path d="M428.95,235.85c-.16.67-.66,1.2-1.15,1.69-1.19,1.19-2.41,2.35-3.66,3.48.66-.05,1.23-.48,1.75-.9.92-.75,1.81-1.55,2.66-2.38.42-.41.84-.84,1.14-1.35s.47-1.11.37-1.7"/>
    <path d="M426.41,230.05l-3.35,3.24c1.91-.7,3.52-2.17,4.39-4.01.12-.25.22-.51.19-.79s-.25-.54-.53-.53"/>
    <path d="M424.46,226.43c-1.48,1.58-3.11,3.01-4.87,4.27,1.79-.57,3.41-1.64,4.65-3.06.37-.43.71-.9.86-1.44s.08-1.18-.31-1.59"/>
    <path d="M419.97,223.58c-1.4,1.04-2.64,2.27-3.69,3.66,1.07-.54,2.15-1.09,3.05-1.88s1.62-1.86,1.74-3.05"/>
    <path d="M332.27,123.34c-1.31.33-2.56.92-3.66,1.71,2.07.02,4.14-.72,5.73-2.06"/>
    <path d="M339.78,126.6c-1.8.32-3.56.81-5.27,1.46-.18.07-.4.2-.38.39.03.24.37.26.61.21,2.39-.52,4.73-1.28,6.97-2.27"/>
    <path d="M346.33,129.46c-1.1.28-2.19.65-3.23,1.1-.22.1-.49.29-.41.52.09.24.43.2.67.12,2.04-.69,4.04-1.48,5.99-2.38"/>
    <path d="M455.36,127.15c-.23.21-2.44.19-2.06.79.29.46,1.79-.54,2.06-.79Z"/>
    <path d="M450.72,124.69c.88-.21,1.74-.52,2.55-.92-.57-.28-1.25-.27-1.86-.09s-1.17.5-1.72.81c.07-.07.14-.13.21-.2"/>
    <path d="M450.8,121.23c.06-.02.13-.05.17-.1s.05-.14,0-.18c-.04-.04-.1-.03-.16-.03-1.01.11-2,.38-2.93.8-.12.05-.24.11-.33.21-.23.26-.04.44.19.45.16,0,.68-.3.87-.36.74-.23,1.46-.5,2.18-.78Z"/>
    <path d="M121.98,232.73l39.99-11.78c-15.55,6.05-31.62,10.73-47.99,13.97.33-.13.66-.25.98-.38"/>
    <path d="M123.86,235.82c9.29-3.59,18.86-6.46,28.6-8.57-11.37,4.33-23.08,7.76-34.98,10.23"/>
    <path d="M115.93,271.21c3.06-.7,6.21-.78,9.34-.97,10.79-.63,21.47-2.45,32.1-4.35-9.6,3.37-19.74,5.16-29.91,5.29-3.46.04-6.97-.1-10.31.78-2.77.73-5.3,2.13-7.66,3.73-1.52,1.02-3.14,2.81-4.83,3.39,1.67-3.95,7.41-6.99,11.27-7.87Z"/>
    <path d="M115.92,277c3.77-.96,7.69-1.07,11.58-1.32,10.7-.68,21.32-2.42,31.67-5.21-5.46,3.22-11.83,4.55-18.13,5.25s-12.67.82-18.93,1.87c-6.31,1.1-12.21,3.17-17.3,7.14,2.38-3.97,6.7-6.6,11.11-7.73Z"/>
    <path d="M129.68,280.44c-3.65,1.81-7.77,2.32-11.74,3.21-1.62.36-3.23.81-4.77,1.42-.96.39-2.09,1.27-3.08,1.34.33-2.77,4.31-3.55,6.41-4.03s4.4-.92,6.63-1.25c1.77-.26,4.98.07,6.54-.7Z"/>
    <path d="M110.08,334.84c-1.76,2.26-2.17,5.5-1.02,8.13s3.8,4.53,6.66,4.77c-4.84.04-9.44-3.75-10.32-8.51-.23,2.14.09,4.35,1.08,6.27s2.64,3.5,4.66,4.24c-3.06-1.13-5.73-3.29-7.48-6.05.5,1.85,1,3.73,1.97,5.38s2.46,3.09,4.32,3.56c1.38.35,2.93.17,4.13.92-2.34.01-4.69.03-6.98-.42s-4.55-1.39-6.19-3.04-2.6-4.09-2.12-6.38"/>
    <path d="M166.55,319.88c-5.91,2.17-11.81,4.34-17.72,6.51,7.52-2.7,15.22-4.91,23.03-6.63"/>
    <path d="M156.51,321.23c-5.55,1.11-10.84,3.49-15.35,6.9,6.82-2.84,13.65-5.68,20.47-8.52"/>
    <path d="M399.34,278.16c-5.92,3.54-12.64,5.73-19.51,6.35,4.79-.07,9.63-.47,14.18-1.96s8.83-4.17,11.58-8.08"/>
    <path d="M400.43,282.51c-3.32,2.86-7.37,4.87-11.65,5.77,6.25-.16,12.31-3.69,15.54-9.03"/>
    <path d="M401.97,339.05c-4.61,5.18-11.14,8.61-18.02,9.47,4.24.37,8.59-.64,12.24-2.82,3.65-2.19,6.59-5.54,8.27-9.45"/>
    <path d="M399.36,337.66c-1.63,3.23-4.81,5.86-8.43,6.05,2.48-.54,5.01-1.11,7.14-2.48s3.82-3.73,3.66-6.26"/>
    <path d="M393.49,338.59l-8.5,2.37c2.23,0,4.5-.04,6.6-.78s4.02-2.35,4.56-4.51"/>
    <path d="M423.08,218.92c6.16-2.05,12.11-4.7,17.75-7.91-4.73,4.08-11.71,4.91-16.17,9.29"/>
    <path d="M437.92,216.39c-1.53.89-6.84,5.87-8.89,3.67-.87-.93,2.4-1.44,3.13-1.64,1.96-.54,3.98-.99,5.76-2.03Z"/>
    <path d="M419.73,214.18l18.36-6.04c-5.06,2.18-10.11,4.35-15.17,6.53-1.07.46-1.94,1.35-2.37,2.43.26-.14.52-.27.77-.41"/>
    <path d="M452.26,178.81c2.24-.35,4.39-1.23,6.27-2.5,2.54-1.72,4.6-4.16,5.76-7.01-1.84,1.6-3.45,3.38-5.21,5.05-1.63,1.55-4.57,4.11-6.82,4.46Z"/>
    <path d="M268.96,258.61l-12.24-2.32c7.67,2.05,15.34,4.09,23.01,6.14"/>
    <path d="M328.59,270.86l-10.08-2.34c4.76,2.4,9.99,3.88,15.3,4.33"/>
    <path d="M328.56,273.28l-6.57-.41c3.52,1.05,7.17,1.64,10.84,1.76"/>
    <path d="M280.58,310.6c-14.32-2.67-28.26-6.99-42.41-10.44-14.15-3.45-28.68-6.03-43.22-5.1,5.8-.37,11.32-1.69,17.21-1.28,5.24.36,10.72,1.81,15.92,2.8,11.37,2.16,22.65,4.86,33.77,8.07,6.29,1.82,12.54,3.8,18.73,5.95Z"/>
  </g>
  <g id="Layer_1" data-name="Layer 1">
    <path d="M492.92,207.81c-15.99-8.07-24.84-27.53-20.39-44.82,1.4-5.43,3.54-10.67,4.2-16.28.63-5.34-.64-10.5-3.26-15.15-5.46-9.67-15.41-15.52-21.49-24.67-3.05-4.59-5.39-10.42-3.98-15.99.65-2.57,2.08-5.08,4.08-6.87,2.2-.93,4.4-1.86,6.59-2.8,1.46-.62.71-3.09-.81-2.98-2.87.21-5.46,1.36-7.6,3.13-2.6,1.11-5.2,2.23-7.8,3.34-.22.09-.38.25-.51.44-16.72,4.44-33.24,9.76-49.81,14.71-9.27,2.77-18.54,5.56-27.83,8.27-9.02,2.63-18.07,4.7-27.29,6.45-7.47,1.42-16.73,5.19-17.4,13.8-.53,1.76-.05,3.86.3,5.58.33,1.63.8,3.22,1.38,4.77-1.61-1.31-3.28-2.56-5.03-3.71-4.76-3.16-10.08-5.64-15.69-6.79-6.24-1.28-12.61-.92-18.85.21-13.06,2.37-25.38,7.73-38.73,8.54-27.96,1.7-54.03-10.62-81.1-15.3-21.98-3.81-47.37-2.29-64.31,14.04-7.87,7.59-13.51,19.51-6.05,29.33,3.18,4.19,7.59,7.15,11.26,10.86,3.77,3.82,6.26,8.56,7.54,13.76,5.93,24.14-10.92,46.09-13.78,69.34-.78,6.38-.24,12.64,1.02,18.92,1.29,6.44,3.12,12.83,3.43,19.42.15,3.31-.16,6.54-1.09,9.73-.88,3.04-2.13,5.95-3.11,8.96-1.61,4.92-2.28,9.99-.07,14.84,1.56,3.41,4.47,6.02,8.08,6.44-4.81,3.83-8.98,8.5-11.99,13.69-2.48,4.28-3.82,9.42-1.82,14.16,1.97,4.66,6.51,6.81,11.41,5.91,5.39-.99,10.11-4.52,14.96-6.88,5.06-2.47,10.33-4.53,15.71-6.18,10.61-3.25,21.66-4.87,32.75-4.93,12.47-.06,24.96,1.92,36.72,6.08,1.25.44,2.29-1.37,1.31-2.24-12.32-10.87-21.84-24.82-27.29-40.33-.05-.15-.13-.28-.21-.4.2-.04.39-.09.59-.13.2,0,.4,0,.61.01.36.01.63-.12.82-.32,15.21-3.18,30.88-3.71,46.34-2.32,16.83,1.51,33.42,5.21,49.59,10.03,16.37,4.88,32.38,10.85,48.36,16.83,15.98,5.98,31.98,12.06,48.35,16.9,8.06,2.39,16.5,4.34,24.96,3.75,6.65-.46,13.15-2.86,18.38-7.04,4.97-3.98,8.24-9.88,8.57-16.26.34-6.73-2.51-13.07-5.53-18.91-3.2-6.19-6.93-12.29-8.39-19.19-1.48-7-.5-14.28,1.88-20.97,2.46-6.9,6.41-13.3,11.11-18.89,2.28-2.71,4.92-5.08,7.23-7.77,2.24-2.6,4.36-5.37,5.78-8.51,1.48-1.2,2.96-2.41,4.48-3.56,3.92-2.98,7.94-5.84,12.04-8.56,8.18-5.42,16.7-10.2,25.58-14.38,5.08-2.39,10.24-4.62,15.48-6.62,1-.38,1.46-1.91.32-2.48ZM339.3,117.06c8.94-1.61,17.72-3.82,26.45-6.33,17.89-5.14,35.67-10.7,53.5-16.05,7.79-2.34,15.58-4.66,23.3-7.2.45.2,1,.16,1.49-.05.73-.31,1.46-.62,2.19-.93-2.2,4.37-2.34,9.38-.94,14.04,3.45,11.48,13.93,18.14,21.33,26.85,3.43,4.03,6.41,8.88,6.98,14.24.08.77.12,1.54.11,2.3-2.55,8.31-8.6,15.41-16.65,18.88-10.06,4.34-21.62,2-31.77,6.12-3.95,1.6-7.6,4.05-10.02,7.54-.52-2.34-1.24-4.63-2.25-6.82-1.25-2.74-3.03-5.21-5.25-7.24-.06-1.49-.28-2.97-.71-4.43-3.07-10.37-14.2-14.13-23.67-16.29-13.75-3.13-27.57-6.02-41.35-9.02-6.51-1.42-13.02-2.84-19.54-4.26.73-7.82,10.32-10.22,16.78-11.38ZM324.85,140.78c-1.02-2-1.79-4.12-2.33-6.3-.26-1.06-.46-2.13-.61-3.21,13.56,3,27.13,6,40.69,9.01,6.84,1.51,13.69,2.95,20.51,4.55,5.16,1.21,10.46,2.68,14.83,5.8,3.99,2.85,6.59,7.18,6.7,12.12.1,4.58-1.65,9.08-4.38,12.72-6.96,9.26-19.12,10.32-29.49,6.87-11.86-3.94-20.79-13.02-28.86-22.17-5.4-6.12-10.65-12.45-16.64-17.99.07-.49-.19-.95-.42-1.4ZM197.65,354.86c-18.49-5.24-38.13-5.72-56.89-1.36-10.24,2.38-20.16,6.19-29.33,11.34-4.26,2.4-10.12,6.2-15.09,3.54-4.47-2.39-4.99-8.28-3.54-12.6,1.84-5.48,6.12-10.32,10.24-14.24,1.7-1.62,3.49-3.12,5.37-4.51,2.37-.64,4.5-2.02,6.56-3.34,2.63-1.69,5.32-3.29,8.07-4.77,11.13-5.95,23.32-9.91,35.81-11.71,4.94-.71,9.98-1.12,15-1.16.02.06.06.11.09.17-.21.29-.29.68-.12,1.14,4.97,14.14,13.12,27.03,23.82,37.49ZM412.06,269.46c-3.35,6.2-5.71,13-6.28,20.05-.57,6.94.96,13.56,3.84,19.86,5.15,11.25,15.65,24.35,8,36.93-3.32,5.46-9.06,9.28-15.11,11.07-7.78,2.3-16.11,1.41-23.88-.41-8.15-1.91-16.13-4.64-24.05-7.34-8-2.73-15.95-5.62-23.87-8.56-15.78-5.84-31.51-11.83-47.54-16.94-15.76-5.02-31.83-9.15-48.23-11.39-16.11-2.21-32.59-2.68-48.69-.13-2.64.42-5.26.92-7.87,1.5-.19-.21-.46-.36-.82-.37-12.49-.38-24.84,1.21-36.77,4.97-5.88,1.85-11.61,4.19-17.1,6.99-2.79,1.42-5.52,2.96-8.17,4.62-.84.52-1.68,1.1-2.53,1.67-1.14.61-2.27,1.26-3.38,1.95-.72.33-1.46.6-2.23.77-5.53,1.25-8.96-4.17-9.57-8.97-.78-6.11,2.7-12.01,4.41-17.68,3.89-12.89-1.73-25.12-2.96-37.89-1.2-12.53,3.05-24.55,7.26-36.16.06-.02.11-.05.17-.08,19.04-11.21,40.39-16.96,62.12-20.15,11.05-1.62,22.21-2.68,33.35-3.43,11.81-.79,23.82-1.01,35.47,1.38,21.4,4.39,38.31,18.53,55.31,31.34,17.42,13.12,36.4,24.75,57.72,30.2,19.96,5.1,41.99,4.32,60.55-5.2.84-.43,1.65-.89,2.46-1.36-.56.9-1.1,1.81-1.6,2.75ZM430.34,245.23c-1.01.99-1.98,2.01-2.88,3.09-.16.2-.06.49.14.57-1,1.21-2.01,2.38-2.95,3.49-2.56,3.04-5.12,6.05-7.47,9.21-.24-.01-.5.05-.76.23-17.57,11.73-39.9,14.17-60.29,9.96-21.71-4.48-41.26-15.74-58.91-28.78-16.84-12.44-33.22-26.87-53.85-32.55-11.3-3.11-23.15-3.52-34.8-3.01-11.22.49-22.47,1.56-33.62,2.98-21.5,2.73-43.06,7.43-62.4,17.52-1.64.85-3.23,1.78-4.81,2.73,3.63-10.15,6.87-20.5,6.76-31.41-.05-5.2-.86-10.46-2.86-15.29-2.01-4.86-5.13-8.84-9.02-12.33-3.83-3.44-8.43-6.69-10.58-11.53-2.55-5.75-.26-12.09,3.12-16.96,6.36-9.15,17.04-14.85,27.58-17.68,11.64-3.12,23.81-2.97,35.65-1.11,26.94,4.23,52.57,16.23,80.19,16.02,6.67-.05,13.24-.95,19.71-2.53,6.36-1.55,12.6-3.57,18.97-5.1,6.26-1.5,12.71-2.52,19.16-1.85,5.99.62,11.65,2.88,16.74,6.04,20.76,12.87,30.87,38.36,54.26,47.66,9.91,3.94,22.12,4.4,30.85-2.53,4.66-3.7,8.23-9.35,9.27-15.33,7.8,9.48,5.19,24.1,6.65,35.49.89,6.92,3.19,13.21,8.17,18.23,4.17,4.2,10.4,8.08,11.11,14.51.41,3.75-1.04,7.15-3.1,10.25ZM440.11,237.1c-1.31,1.02-2.64,2.05-3.96,3.1.55-2.15.7-4.36.28-6.6-.58-3.15-2.35-5.9-4.46-8.27-2.11-2.37-4.59-4.38-6.85-6.61-2.45-2.41-4.44-5.1-5.7-8.32-2.64-6.72-2.56-14.12-2.77-21.22-.08-2.74-.25-5.51-.6-8.25.24-.13.45-.34.61-.66,4.52-9.42,16.35-10.51,25.48-11.33,5.68-.51,11.36-1.2,16.59-3.63,4.19-1.94,7.94-4.88,10.9-8.42.83-1,1.6-2.04,2.31-3.12-.51,1.72-1.07,3.42-1.58,5.1-1.48,4.89-2.44,9.85-2.23,14.98.19,4.6,1.14,9.18,2.79,13.48,3.49,9.08,9.71,16.71,18.1,21.48-17.44,7.16-34.04,16.68-48.91,28.27Z"/>
  </g>
</svg>