<?xml version="1.0" encoding="UTF-8"?>
<svg xmlns="http://www.w3.org/2000/svg" viewBox="0 0 1366 768">
  <defs>
    <style>
      .cls-1 {
        fill: #fb5e0a;
      }

      .cls-2 {
        fill: #d00000;
      }

      .cls-3 {
        fill: #fec400;
      }

      .cls-4 {
        fill: #fff200;
      }
    </style>
  </defs>
  <g id="Layer_2" data-name="Layer 2">
    <path class="cls-2" d="M-27,117.33C-11.35,110.91-.9,95.92,6.19,80.56s11.76-31.88,20.57-46.32C40.43,11.83,62.8-3.63,84.51-18.4c-6.31,4.65-9.78,12.87-8.7,20.64.66,4.72,2.82,9.09,3.8,13.75,2.56,12.26-3.45,24.81-11.41,34.48s-17.96,17.55-25.63,27.45c-13.71,17.71-19,41.66-14.04,63.5.26,1.14.57,2.34,1.36,3.2,2.18,2.4,6.19.86,8.72-1.16,4.93-3.95,8.64-9.18,12.37-14.28,17.15-23.43,36.35-45.35,57.3-65.46,12.63-12.12,26.93-24.07,44.25-26.62-4.14,17.44-25.67,25.92-31.15,42.99-3.16,9.85-.3,20.56-1.03,30.88-2.29,32.06-36.49,50.96-53.18,78.43-1.36,2.23-2.63,4.64-2.79,7.25-.28,4.63,2.94,8.65,4.55,12.99,3.41,9.19-.46,19.35-4.55,28.26-5.51,12-11.53,23.78-18.01,35.28-4.47,7.93-7.37,20.95,1.36,23.54,6.16,1.82,11.53-4.36,14.86-9.85,11.18-18.48,20.64-38.01,28.21-58.24,3.23-8.64,6.29-17.71,12.66-24.39,7.69-8.08,18.96-11.41,28.75-16.75,25.83-14.09,42.53-42.95,70.46-52.2,6.72-2.22,13.91-3.23,20.12-6.61,14.31-7.78,21.41-26.95,37.3-30.54-.98,24.49-25.61,39.77-43.97,56.01-35.9,31.77-53.46,78.86-69.7,123.96-3.06,8.5-6.17,17.34-5.36,26.34,1.25,13.86,11.59,25.71,12.53,39.59,1.3,19.24-15.49,35.31-17.74,54.46-.31,2.64-.3,5.46,1.03,7.75,3.47,6.01,13.11,4.17,17.88-.87s7.02-12.06,11.83-17.06,14.53-6.65,17.84-.56c1.18,2.17,1.2,4.78.8,7.22-1.71,10.37-10.09,18.11-17.34,25.72-25.36,26.59-41.98,61.38-46.74,97.82-.62,4.76-1.25,9.98-4.73,13.29-5.69,5.41-14.99,2.54-22.67,4.2-18.06,3.9-23.55,31.59-41.85,34.11-5.73.79-11.41-1.23-17.07-2.4-24.04-4.99-50.63,6.79-63.09,27.94"/>
    <path class="cls-2" d="M420.88,687.72c-11.33-.59-22.66-.67-33.83-3.29-8.36-1.96-16.66-5.9-23.28-11.55-2.42,6.95-5.31,13.7-9,20.07-8.42,14.53-21.76,27.06-38.17,30.6-5.72,1.23-12.06,1.25-16.99-1.9-7.54-4.81-9.24-15.28-7.67-24.08,2.22-12.36,9.21-23.28,13.41-35.12s5.03-26.47-3.62-35.58c-10.45,14.6-23.08,27.63-37.34,38.54-6.78,5.19-17.2,9.63-22.99,3.35-2.46-2.68-3.09-6.51-3.62-10.11-1.9-13.1-3.8-26.19-5.7-39.29-1.55-10.7-3.1-21.67-.86-32.25,2.76-13.05,10.98-24.17,16.9-36.12,9.37-18.9,13.07-40.57,10.51-61.51-17.93,36.4-36.32,73.47-64.63,102.54-2.12,2.17-4.57,4.43-7.61,4.59-7.78.39-8.91-11.19-6.68-18.66,3.09-10.35,6.9-21.52,3.09-31.63-2.64-7-8.62-12.36-11.21-19.37-3.17-8.57-.79-18.16,2.46-26.7,14.54-38.17,45.17-67.64,67.05-102.14,3.12-4.92,4.43-13.77-1.36-14.48-2.55-.31-4.79,1.57-6.59,3.4-10.45,10.63-17.97,23.83-28.33,34.55-14.93,15.44-34.83,24.82-53.35,35.69-18.52,10.87-36.88,24.54-45.08,44.38L-2.32,634.27c-13.4,44-13.88,91.85-1.38,136.11.59,2.08,1.27,4.26,2.84,5.75,3.24,3.07,8.45,1.86,12.75.63,66.39-19.03,136.35,6.44,205.13,12.74,40.31,3.69,80.91.72,121.21-2.98,41.32-3.79,82.57-8.35,123.72-13.68.21-29.89-27.38-53.65-35.34-81.69-1.95-1.06-3.86-2.21-5.74-3.43Z"/>
    <path class="cls-2" d="M34.69,490.26c-8.64-.86-17.33-1.19-26.01-.99-7.4.17-15.25.87-21.21,5.26-8.6,6.33-10.63,18.12-12,28.7-3.13,24.36-6.26,48.71-9.39,73.07-2.69,20.94-5.36,42.45-.29,62.94s19.66,40.04,40.27,44.62c2.14.47,4.34.79,6.51.49,3.42-.46,6.46-2.37,9.28-4.37,27.68-19.6,45.41-52.58,46.49-86.48"/>
    <path class="cls-2" d="M339.2,727.58c7.32-10.49,14.95-22.01,14.37-34.79-.17-3.72-1.05-7.39-1.13-11.12-.35-14.79,11.67-27.11,24.64-34.24s27.67-11.01,39.88-19.37c19.95-13.68,30.43-37.26,38.29-60.13,1.39-4.05,3.3-8.68,7.42-9.83,7-1.94,11.44,7.59,11.42,14.86-.06,18.92-8.58,39.08.04,55.93,5.53,10.79,17.28,17.88,21.02,29.41,3.01,9.27.16,19.26-1.22,28.91s-.55,21.02,7.28,26.83c5,3.72,12.27,4.08,17.62.89,6.88-4.1,9.64-12.58,15.04-18.5,3.66-4.02,8.47-6.78,12.8-10.08,11.11-8.49,19.14-20.93,22.29-34.56,9.78,6.2,15.81,17.9,15.16,29.46-.44,7.92-3.72,16.04-1.16,23.55,3.22,9.45,14.09,13.62,23.81,15.91,10.65,2.5,23.04,3.81,31.47-3.17,9.14-7.56,9.53-21.28,15.15-31.72,2.29-4.25,5.57-8.23,5.97-13.04.77-9.33-9.06-15.52-14.32-23.26-9.17-13.5-3.59-32.74,7.53-44.69,11.12-11.95,26.49-18.78,40.58-27.03-7.38,11.59-13.55,23.95-18.39,36.82-2.61,6.94-4.82,14.68-2.24,21.62,4.47,12.02,21.38,16.72,23.89,29.3.72,3.61.08,7.33.16,11,.25,11.23,8.99,22.44,20.2,23.04,13.16.71,23.25-12.26,26.42-25.05,3.17-12.79,1.97-26.4,5.56-39.07,2.28-8.05,6.47-15.74,6.58-24.1.07-5.86-1.89-11.68-1.18-17.5,1.34-10.91,11.33-18.36,20.47-24.47-2.54,17.64-4.76,36.97,4.66,52.09,4.71,7.55,12.22,13.86,13.58,22.65,1.7,10.96-6.85,20.89-8.14,31.9-2.01,17.22,13.31,30.74,23.87,44.49,10.96,14.28,17.71,31.76,19.17,49.7.32,3.87.22,8.23-2.51,11-2.65,2.68-6.83,2.92-10.6,2.98-52.95.93-105.9,1.86-158.86,1.63-39.22-.17-79.52-.8-116.25,12.96"/>
    <path class="cls-2" d="M780.26,684.38c-2.86,11.27,3.27,24.14,13.82,29.02,10.55,4.88,24.33,1.22,31.06-8.26,10.4-14.63,2.9-35.51,8.97-52.4,9.66-26.88,49.84-35.37,54.74-63.51,1.34-7.69.57-17.48,7.43-21.2,8.41-4.57,17.76,6.85,16.44,16.32-1.32,9.47-8.23,17.09-12.07,25.85-6.69,15.29-3.5,33.46,4.39,48.16s19.98,26.64,31.89,38.34c3.99,3.92,8.31,8.02,13.8,9.08,10.74,2.07,19.59-7.97,25.9-16.9,6.68-9.46,13.37-18.92,20.05-28.38,3.02-4.28,6.16-8.86,6.46-14.09.56-9.68-8.32-16.84-13.86-24.81-18.91-27.2.15-69.37-20.27-95.45-5.42-6.92-12.63-18.34-4.72-22.17,5.24-2.54,10.69,2.86,14.03,7.63,29.48,42.12,59.71,85.99,68.85,136.58.94,5.2,1.69,10.56,4.19,15.21,6.05,11.23,21.27,15.09,33.45,11.3,12.18-3.79,21.63-13.51,28.93-23.97,3.23-4.63,6.27-10.09,5.14-15.62-1.25-6.12-7.12-10.09-10.21-15.52-5.64-9.92-1.13-22.26-1.2-33.67-.15-23.07-19.38-41.55-39.44-52.95-10.38-5.9-22.09-11.42-27.46-22.07-3.23-6.4-3.66-13.8-4.04-20.95-1.2-22.82-2.39-45.65-3.59-68.47,7.35-3.46,10.45,8.97,11.84,16.97,4.77,27.33,43.66,32.47,59.15,55.48,9.24,13.72,13.54,36.06,30.08,36.16,11.66.07,19.39-13.08,19.38-24.74s-5.04-22.69-6.92-34.2c-4.48-27.31,8.67-56.98-2.76-82.19-5.06-11.16-14.48-20.01-18.96-31.41-4.49-11.41-.83-27.9,11.23-30.08,27.54,50.44,58.16,99.2,91.64,145.91,2.86,3.99,5.87,8.08,10.12,10.53,10.21,5.88,24.22-.58,29.58-11.07,5.36-10.49,3.84-23.26-.14-34.35-3.98-11.09-10.23-21.24-14.37-32.27-6.69-17.86-7.58-37.84-2.49-56.23,3.5-12.63,9.79-25.11,8.2-38.12-1.67-13.66-11.6-24.58-19.33-35.97s-13.55-26.65-6.57-38.52c12.94,3.47,17.73,18.74,23.57,30.81,5.83,12.06,21.12,23.61,31.32,14.92,2.58-2.2,4.17-5.33,5.46-8.47,7.05-17.16,6.72-37.2-.9-54.12-2.72-6.04-6.42-12.28-5.29-18.8,1.12-6.49,6.71-11.23,9.37-17.26,8.42-19.08-14.15-44-1.36-60.47,12.05,19.76,12.36,45.92,27.88,63.09,9.74,10.77,23.93,16.16,35.95,24.3,38.39,25.97,50.88,76.52,54.36,122.74,9.11,120.95-22.62,240.98-30.32,362.03-1.64,25.71-2.19,51.52-5.05,77.12-.5,4.43-1.2,9.16-4.24,12.43-5.38,5.79-14.76,4.05-22.41,2.07-33.12-8.58-67.25-13.23-101.46-13.83-61.04-1.06-121.48,10.71-182.24,16.64-60.8,5.93-122.16,5.99-182.97.19"/>
    <path class="cls-2" d="M851.84,693.57c-18.1,21.22-49.45,32.3-75.2,21.59,10.2,30.49,20.41,60.99,30.61,91.48,1.65,4.94,3.35,9.96,6.41,14.17,6.11,8.4,16.69,12.26,26.9,14.17,33.75,6.34,68.62-3.62,102.79-.13"/>
    <path class="cls-2" d="M839.1,681.38c-3.34,2.51-5.41,6.29-7.7,9.78-4.79,7.3-10.99,13.79-18.57,18.12s-16.6,6.38-25.2,4.88c4.13,5.23,5.52,12.05,8.4,18.06s8.57,11.75,15.17,10.9"/>
    <path class="cls-2" d="M1313.02,192.61c-8.67-14.91-9.61-34.04-2.46-49.73,3.39-7.42,8.48-14.18,10.26-22.14,1.99-8.93-.44-18.22-3.47-26.85-4.5-12.82-10.36-25.16-17.44-36.76-2.62-4.3-5.46-8.57-6.79-13.43s-.93-10.51,2.41-14.28c4.07,8.28,9.89,15.69,16.97,21.6,1.59,1.33,3.51,2.65,5.55,2.31,3.74-.62,4.37-5.85,3.21-9.46-3.82-11.91-16.39-20.46-17.03-32.95-.69-13.41,12.77-23.8,14.21-37.15,14.57,6.85,24.59,20.42,36.52,31.23,16.64,15.09,37.31,25.01,55.01,38.85,5.06,3.95,10.1,8.58,11.87,14.75,1.68,5.89.11,12.13-.71,18.2-1.61,11.96-.22,24.11-.85,36.16-1.53,29.63-15.12,57.49-17.92,87.03-1.01,10.69-.6,21.51-2.18,32.13-1.62,10.89-5.32,21.49-5.78,32.49-.17,4.09.01,8.53-2.38,11.85-2.43,3.37-7,4.63-11.13,4.18s-7.95-2.33-11.67-4.17"/>
    <path class="cls-2" d="M1376.21-21.51c-6.74-1.4-13.78-1.38-20.52.06-1.76.38-3.57.89-4.94,2.06-1.65,1.42-2.43,3.59-3.02,5.68-2.5,8.8-3.02,18.16-1.52,27.18.53,3.16,1.37,6.43,3.55,8.78,3.35,3.62,8.81,4.09,13.73,4.32,9.13.43,19.13.6,26.36-5"/>
    <path class="cls-2" d="M-16.25,81.26C-12.68,69.01-2.42,59.53.94,47.22c1.66-6.08,1.57-12.64,4.13-18.39,1.98-4.48,5.42-8.13,8.79-11.68,6.23-6.57,12.46-13.15,18.69-19.72-4.99-2.44-10.9-.39-16.05,1.67C9.75,1.79,2.93,4.53-2.93,8.82c-14.11,10.33-20.57,27.89-26.29,44.41"/>
    <path class="cls-2" d="M-12.45,33.94C-7.14,26.68-.32,20.69,5.84,14.14S17.67.17,19.87-8.55c.13-.53.25-1.12,0-1.61-.34-.71-1.24-.91-2.02-.98-3.1-.28-6.26.22-9.12,1.44C5.46-8.29,2.65-6-.1-3.73-7.77,2.58-15.47,8.91-22.29,16.12c-5.12,5.41-10.01,12.31-8.75,19.65"/>
  </g>
  <g id="Layer_5" data-name="Layer 5">
    <g id="Layer_4" data-name="Layer 4">
      <path class="cls-1" d="M-37.68,141.28c12.21-18.06,34.79-26.78,47.67-44.38,13.44-18.37,14.2-43.41,26.15-62.79,7.53-12.22,19.02-21.39,30.28-30.31,3.6,3.36,3.47,9.16,1.92,13.84s-4.22,9.02-4.9,13.9c-.47,3.43.06,6.98-.81,10.32-.68,2.59-2.17,4.89-3.81,7.01-5.98,7.72-14.08,13.49-20.92,20.45-17.53,17.82-26.25,43.9-22.97,68.68.44,3.34,1.13,6.76,2.97,9.58,1.87,2.87,4.9,5.12,5.69,8.46.46,1.95.26,4.38,1.91,5.49.54.36,1.19.51,1.84.56,3.86.35,7.47-2.09,9.98-5.04s4.29-6.47,6.79-9.42c9.52-11.25,27.78-12.7,35.85-25.03,3.05-4.66,4.18-10.28,6.13-15.5,3.13-8.37,8.42-15.74,13.86-22.83,10.84-14.13,22.77-27.8,37.79-37.36-7.58,8.72-15.17,17.46-21.76,26.94-5.8,8.36-10.97,18.74-7.66,28.36,2.15-.93,4.08-2.35,5.62-4.12,2.6,8.18-3.22,16.56-9.38,22.54s-13.47,11.93-14.95,20.39c4.64-2.8,9.28-5.59,13.93-8.39-4.17,6.99-9.92,13.03-16.69,17.55-5.5,3.67-11.76,6.42-16.2,11.31-6.41,7.05-7.9,17.2-12.5,25.54-.76,1.38-1.69,2.78-3.11,3.47-1.34.64-2.92.55-4.33,1.03-3.68,1.27-4.92,6.15-3.73,9.85s4.04,6.59,6.48,9.62,4.66,6.7,4.16,10.56c-1.23-2.98-4.76-4.42-7.97-4.34s-6.27,1.33-9.35,2.27c-6.77,2.07-13.97,2.7-21,1.88-7.94-.93-16.85-3.45-23.3,1.28-2.86,2.09-5.62,5.65-9.03,4.71-2.91-.8-3.89-4.36-4.38-7.34-2.14-12.99-4.28-25.98-6.43-38.98"/>
      <path class="cls-1" d="M49.22,214.15c7.18,2.52,8.67,12.73,5.03,19.42s-10.5,10.82-16.63,15.32-12.2,10.42-12.83,18.01c4.28-3.95,10.54-5.64,16.22-4.38-4.82,8.72-9.63,17.44-14.45,26.16-.82,1.48-1.66,3.05-1.62,4.75.03,1.41.68,2.72,1.23,4.02,4.38,10.35,2.85,22.96-3.86,31.97,11.88-.45,23.4-6.73,30.21-16.46,2.85-4.06,5.53-9.14,10.41-10.03-.92,3.51-.36,7.39,1.51,10.5,8.69-8.72,17.59-17.76,22.22-29.16,5.18-12.75,5.07-28.37,14.93-37.96,3.55,2.33,5.76,6.55,5.68,10.79,9.61-12.23,7.82-30.25,15.99-43.48,9.44-15.31,29.8-20.7,40.27-35.33-.39,3.53-.78,7.06-1.16,10.59,12.42-17.02,28.56-31.32,46.96-41.59,8.78-4.9,18.18-8.99,25.63-15.74-27.66,20.21-52.3,44.54-72.87,71.93,4.01-1.85,8.01-3.7,12.02-5.56-8.53,18.36-28.1,29.19-38.69,46.45-10.03,16.34-10.93,36.52-11,55.69,6.1-7.32,11.74-15.01,16.87-23.03-3.06,8.94-6.12,17.89-9.17,26.83-1.69,4.94-3.38,10.36-1.58,15.26,1.7,4.61,6.21,7.83,7.58,12.54,1.84,6.3-2.59,12.76-7.74,16.83s-11.34,7-15.37,12.19c-4.56,5.87-5.61,13.87-4.49,21.21s4.21,14.23,7.25,21c-6.62-9.5-18.93-14.67-30.34-12.74-8.29,1.4-15.87,6.16-24.26,6.58-10.48.53-20.27-5.79-30.76-5.95-16.59-.26-29.09,14.18-43.37,22.63-2.44,1.45-5.07,2.76-7.91,2.95-6.21.43-11.67-4.79-13.68-10.68s-1.36-12.31-.72-18.51c5.88-57.41,8.79-115.12,8.71-172.82,0-1.98.04-4.12,1.22-5.72,1.43-1.94,4.06-2.46,6.43-2.84,9.26-1.48,18.51-2.95,27.77-4.43"/>
      <path class="cls-1" d="M102.99,386.3c11.83,5.13,18.43,19.96,14.32,32.18-1.34,3.99-2.67,10.01,1.42,11.02,1.18.29,2.4-.08,3.55-.46,16.34-5.44,31.36-14.83,43.4-27.15-1.26,14.09-13.98,23.82-22.84,34.84-11.78,14.65-17.36,33.19-22.68,51.23-.27.91-.54,1.86-.33,2.78.43,1.88,2.76,2.79,4.63,2.36s3.37-1.81,4.75-3.16c6.49-6.36,12.43-13.29,17.73-20.67.44,2.78.89,5.55,1.33,8.33.15.92.3,1.86.81,2.64,1.23,1.87,4.11,1.97,6.04.82s3.14-3.16,4.33-5.06c9.99-16.05,23.17-30.11,38.55-41.11-10.36,24.47-24.62,47.28-42.07,67.32-4.33,4.97-8.99,12.39-4.73,17.42.97,1.14,2.3,1.94,3.22,3.12,3.52,4.49-.43,10.72-3.18,15.72-.47.85-.91,1.77-.88,2.74.12,4.18,6.57,3.32,10.51,4.71,4.16,1.47,5.94,6.77,4.81,11.04s-4.4,7.61-7.79,10.44c-18.27,15.2-43.7,21.4-58.61,39.91-6.7,8.32-11.02,18.89-19.8,24.98-10.01,6.95-23.18,6.36-35.37,6.55-22.47.36-44.87,4.33-66.09,11.73-1.81.63-4.17,1.15-5.37-.36-.46-.58-.61-1.35-.75-2.08-2.15-11.67-3.61-23.47-4.35-35.32-1.46-23.01-.25-46.09-.41-69.14-.21-29.63-2.68-59.24-7.39-88.49"/>
      <path class="cls-1" d="M71.62,436.34l-2.55,1.03c4.8-8.06,9.61-16.14,13.77-24.55,4.32-8.73,8.01-18.29,6.93-27.97-.55-4.96-2.63-10.08-6.86-12.72-7.11-4.44-16.16-.17-23.94,2.93-10,3.99-20.68,5.94-31.27,7.87-13.38,2.44-26.75,4.88-40.13,7.31-3.02.55-6.12,1.13-8.76,2.7-2.08,1.23-3.77,3.02-5.28,4.9-9.19,11.42-12.54,26.7-11.95,41.35s4.78,28.9,9.27,42.85"/>
      <path class="cls-1" d="M78.08,411.01c2.64,1.66,6.09-.03,8.5-2.01,5.38-4.42,22.16-28.84,5.81-28.42-5.37.14-9.6,3.6-11.9,8.15-2.17,4.28-8.18,18.66-2.41,22.29Z"/>
      <path class="cls-1" d="M126.67,583.25l23.33-10.97c1.31-.62,2.84-1.24,4.15-.63,1.2.56,1.76,1.95,2.03,3.25,3.08,14.98-17.17,26.88-15.13,42.04.58,4.31,2.95,8.14,4.26,12.28,2.68,8.46.56,18.27-5.37,24.87,11.18-4.24,21.03-11.93,27.85-21.75,1.89-2.72,3.67-5.71,6.55-7.34,2.22-1.25,4.82-1.55,7.27-2.24,7.75-2.18,13.74-8.25,18.99-14.36,13.04-15.18,23.98-32.16,32.42-50.3-1.37,18.53-18.26,33.54-18.3,52.12-.02,10.12,5.07,20.17,2.79,30.03-1.42,6.15-5.2,13.77-.34,17.8,2.29,1.9,5.87,2.06,7.61,4.47.97,1.34,1.12,3.09,1.13,4.75.08,10.65-4.58,21.26-12.48,28.4-2.59,2.34-5.69,4.6-6.47,8-1.84,7.94,9.93,13.49,9.61,21.63,9.59-6.33,18.39-13.86,26.13-22.35,4.77-5.23,9.25-10.91,15.24-14.66,3.94-2.47,8.39-4,12.5-6.17,8.19-4.31,15.02-11.18,19.27-19.41-2.54,16.35-19.99,29.44-16.92,45.7,1.78,9.43,10.44,17.45,8.95,26.93-.36,2.32-1.34,4.59-1.13,6.93.64,6.82,9.68,8.54,16.53,8.66,6.85.11,15.93,2.72,15.62,9.57-.16,3.6-3.17,6.4-6.23,8.31-13.21,8.26-29.9,7.53-45.48,7.21-81.78-1.66-162.8,15.8-244.55,18.28-14.15.43-29.31.12-40.98-7.88-11.43-7.84-17.32-21.8-19.14-35.54s-.16-27.67.34-41.52c.97-27.12-2.5-54.62,2.86-81.23,3.64-18.08,11.35-36.19,7.9-54.3"/>
      <path class="cls-1" d="M276.94,726.29c1.3,6.67,6.75,12.34,13.37,13.9s14.03-1.08,18.17-6.46c-.15,3.69-.03,7.99,2.92,10.2,3.27,2.45,8.07.74,11.1-1.99s5.24-6.38,8.66-8.6c2.02-1.3,4.35-2.04,6.46-3.18,5.71-3.08,9.57-9.31,9.8-15.79,1.7,5.59,3.4,11.17,5.1,16.76,7.58-4.02,9.88-13.6,11.4-22.04,1.39-7.77,2.79-15.61,2.52-23.51-.11-3.07-.46-6.2.39-9.15,1.49-5.15,6.3-8.58,11.04-11.08-.59,8.68-.83,17.38-.73,26.08.02,1.79.11,3.72,1.21,5.12,2.33,2.95,7.42,1.3,9.42-1.88s2.11-7.14,3.11-10.76c2.79-10.04,12.1-16.6,20.47-22.8s17.08-14.14,17.6-24.55c.83,6.02,2.55,11.91,5.07,17.43,11.13-20.46,19.54-42.39,24.95-65.05-1.68,13.08-3.35,26.5-.34,39.34.82,3.53,2,7.01,2.24,10.62.24,3.66-.48,7.31-1.21,10.9-1.61,8-3.22,16-4.82,24,9.36-3.18,13.69-13.67,16.92-23.01,6.26,12.64-6.74,28.61-.78,41.4,2.17,4.66,6.55,7.96,8.97,12.49,3.88,7.25,2.14,16.09.3,24.11,3.2-3.37,5.56-7.53,6.8-12,4.85,6.87-.05,16.79,2.94,24.65,1.78,4.7,6.08,7.9,9.2,11.84s4.92,10.07,1.48,13.74c-1.91,2.04-4.86,2.64-7.61,3.15-5.66,1.03-11.32,2.07-16.99,3.1-23.51,4.29-47.23,8.6-71.11,7.87-33.52-1.02-66.54-11.95-99.99-9.46-7.38.55-14.77,1.75-22.15,1.22s-15-3.05-19.82-8.67"/>
      <path class="cls-1" d="M486.08,725.12c-.18,4.78-.29,9.85,2.15,13.96s8.43,6.47,12.15,3.46c3.09-2.49,3.16-7.17,5.31-10.5,1.93-2.99,5.66-4.71,9.19-4.23.29.04.58.1.82.27.39.3.48.83.54,1.31.29,2.19.58,4.37.87,6.56.12.9.29,1.9,1.01,2.44,1.12.85,2.72.07,3.78-.84,6.92-5.92,7.71-16.56,13.81-23.31,2.83-3.12,6.61-5.19,9.91-7.82,10.14-8.08,15.26-20.98,24.58-30-1.72,2.89-3.29,5.87-4.71,8.92-1.86,4-3.32,9.09-.53,12.51.94,1.16,2.27,1.94,3.3,3.02,1.91,1.99,2.69,4.8,3.22,7.51,1.36,6.87,1.64,13.95.83,20.9-.31,2.67-.74,5.58.63,7.9,4.85-3.79,7.47-10.24,6.65-16.34,5.31,2.68,8.49,9.04,7.44,14.89-.6,3.37-2.45,6.75-1.49,10.04.39,1.32,1.2,2.48,2.03,3.57,3.03,3.97,6.54,7.56,10.45,10.67,4.43,3.53,9.78,7.08,10.67,12.68.08.48.1,1.02-.22,1.39-.3.35-.8.43-1.26.48-11.31,1.32-22.63,2.65-33.94,3.97-13.65,1.6-27.35,3.2-41.1,2.95-14.26-.25-28.41-2.48-42.39-5.25-4.3-.85-8.81-1.74-12.98-.42"/>
      <path class="cls-1" d="M582.68,741.12c2.44,7.01,9.58,11.94,16.99,12.31s14.76-3.55,19.07-9.59c2.04-2.86,3.58-6.27,6.54-8.17,5-3.2,11.56-.73,17.47-1.26,9.55-.84,16.55-9.48,20.43-18.25,6.29-14.22,7.38-30.66,3.04-45.58,4.4,6.33,7.84,13.33,10.17,20.68,2.48-9.31-.41-19.85-7.29-26.59-3.23-3.17-7.2-5.5-10.41-8.69-7.74-7.72-9.97-20-6.87-30.49s10.97-19.16,20.37-24.74c-4.25,6.94-8.54,13.98-10.79,21.8s-2.25,16.64,1.84,23.67c-1.61-4.25-.74-9.35,2.18-12.83,2.6,10.01,5.56,20.62,13.25,27.53,2.14,1.93,4.62,3.52,6.45,5.76,9.2,11.23-2.61,30.52,6.47,41.85-1.28-2.06,1.86-4.55,4.12-3.67s3.32,3.43,4.03,5.74,1.45,4.88,3.49,6.2c2.87,1.86,7.18.43,9.75,2.69,3.66,3.2.61,10.9,4.94,13.13,9.37-10.24,17.61-21.45,25.82-32.64,1.95-2.66,3.9-5.32,5.85-7.98,1.28-1.74,2.58-3.52,3.27-5.57,1.06-3.13.59-6.55.33-9.84-.45-5.64-.27-11.33.53-16.94.25-1.73.58-3.51,1.6-4.93,1.42-1.97,3.89-2.86,5.65-4.52,3.55-3.34,3.54-8.95,2.76-13.77-2.02-12.49-7.41-25.64-2.38-37.26-1.32,9.83,1.94,20.18,8.66,27.48,1.93,2.1,4.2,4.08,5.01,6.81.59,1.99.31,4.13.02,6.19-1.16,8.34-2.33,16.67-3.49,25.01,3.89-3.12,7.79-6.23,11.68-9.35-2.66,6.29-5.35,12.67-6.36,19.42-1.01,6.76-.17,14.05,3.74,19.65,1.34,1.92,3.02,3.61,4.2,5.64,3.01,5.14,2.44,11.64.74,17.35-1.7,5.71-4.43,11.12-5.56,16.97,12.43,1.78,25.63-4.18,32.53-14.66,2.66,11.74-10.68,21.74-10.68,33.78,0,4.3,1.75,8.6.9,12.82-1.06,5.23-5.97,8.97-11.13,10.35s-10.6.88-15.93.55c-20.66-1.24-41.36.44-62.01,1.79-36.45,2.38-73.05,3.74-109.5,1.4-7.42-.48-15.07-1.17-21.6-4.72-9.26-5.03-15-15.88-13.96-26.36"/>
      <path class="cls-1" d="M806.88,730.77c-.26,3.45-.18,7.61,2.75,9.45,3.45,2.17,8.08-.9,9.71-4.64s1.55-8.03,3-11.84c3-7.89,11.76-12.1,15.95-19.42,4.61-8.05,4.24-20.2,12.8-23.79.25,10.11.5,20.21.75,30.32,7.9-4.4,9.97-15.03,8.54-23.95-1.43-8.92-5.43-17.34-6.31-26.33-.89-8.99,2.64-19.56,11.19-22.46-2.18,6.28-2.4,13.23-.63,19.64,2.51-8.61,7-16.63,13.02-23.26,2.82-3.11,6.02-5.99,7.86-9.77,2.11-4.35,2.16-9.36,2.95-14.12,1.44-8.62,5.5-16.79,11.51-23.15-10.09,23.62-13.79,49.94-10.6,75.42,1.27-3.41,2.54-6.82,3.8-10.23,3.32,9.49,1.18,19.9,1.19,29.95s3.5,21.65,12.91,25.2c.54-6.88,1.08-13.76,1.62-20.64,5.19,3.72,4.95,11.28,6.48,17.48,1.77,7.21,6.72,13.58,13.27,17.08,6.4,3.42,14.03,4.13,20.26,7.85s10.46,12.84,5.51,18.16c16.32-7.67,15.71-32.16,28.89-44.47.13,5.68.27,11.35.4,17.03,6.44-6.7,13.07-13.72,15.9-22.57,1.34-4.18,1.77-8.62,3.3-12.73,2.73-7.31,8.8-13.22,10.35-20.87,1.87-9.26-3.33-19-.87-28.12,1.72,3.24,3.44,6.47,5.16,9.71,1.27-7.65-.07-15.71-3.75-22.53-3.56-6.6-9.14-11.9-13.1-18.27-13.58-21.83-6.48-52.62-21.94-73.16,18.78,14.78,22.95,41.07,25.75,64.8,1.18-4.24,2.35-8.48,3.53-12.72,1.66-.1,2.77,1.64,3.4,3.18,4.98,12.27,3.47,27,10.94,37.93,3.88,5.69,9.9,9.8,13.14,15.87,6.76,12.64-.7,28.1.54,42.38,3.44-2.11,6.29-5.16,8.16-8.74,2.11,11.68-1.57,23.55-2.38,35.39-1.36,19.98,5.44,39.51,8.48,59.3.29,1.91.41,4.21-1.12,5.39-1.14.89-2.75.75-4.19.59-33.7-3.65-67.37,7.84-101.25,6.75-24.81-.8-49.07-8.32-73.88-8.68-26.78-.38-53.87,7.58-80.05,1.94-1.15-.25-2.33-.54-3.26-1.25-4.42-3.35.71-10.5-.74-15.85"/>
      <path class="cls-1" d="M1376.5,12.55c.21.66,1.34.44,1.57-.21s-.1-1.37-.44-1.98c-2.11-3.81-4.58-7.41-7.38-10.74-.94-1.12-1.98-2.26-3.35-2.78-1.27-.49-2.68-.4-4.04-.31-3.93.27-7.86.54-11.79.81-5.72.39-11.64.76-17.01-1.24-4.86-1.81-8.97-5.56-11.2-10.24.21,6.06,3.09,11.98,7.72,15.89,1.57,1.32,3.51,3.37,2.32,5.04-.94,1.32-2.97.91-4.5.37-5.97-2.13-11.94-4.26-17.92-6.39,2.16,9.27,7.52,17.76,14.95,23.7,5.69,4.54,13.17,8.57,14.23,15.77.17,1.16.16,2.33.2,3.5.29,8.1,3.33,15.81,6.33,23.33-4.01-3.05-10.66,2.27-14.53-.95-1.49-1.24-1.92-3.32-2.92-4.98s-3.44-2.91-4.8-1.53c3.1,10.56,8.85,20.11,13.01,30.3s6.7,21.74,3.06,32.12c-4.01-4.04-7.53-8.57-10.45-13.46-2.94,7.89,1.16,17.28-2.37,24.93-1.63,3.54-4.86,6.63-4.72,10.53.11,3.06,2.29,5.58,4.14,8.02,7.9,10.39,11.48,23.98,9.71,36.92-2.48-9.58-13.88-13.03-22.23-18.33-6.59-4.18-12.02-10.57-13.89-18.14,2.36,8.37,4.72,16.74,7.09,25.1,1.17,4.14,2.38,8.37,4.85,11.89,2.4,3.42,5.84,5.95,8.75,8.96,5.52,5.71,9.21,13.25,15.74,17.79,6.3,4.38,14.34,5.33,21.21,8.74,5.7,2.83,10.46,7.28,16.07,10.28.8.43,1.68.84,2.59.74,2-.22,2.86-2.61,3.28-4.57,11.63-54.94,13.91-111.85,6.73-167.55-.89-6.92-1.95-13.92-4.65-20.35-.18-.43-.44-.91-.9-.95s-.71.8-.25.83"/>
      <path class="cls-1" d="M1042.24,688.4c1.03,4.4,2.14,8.97,4.96,12.51s7.85,5.75,11.98,3.9c2.1-.94,3.68-2.78,5.71-3.87,5-2.71,11.48-.2,15.34,3.98s5.89,9.68,8.49,14.74c1.67,3.25,4.49,6.81,8.1,6.23,3.63-.59,5.15-4.88,5.97-8.46,2.8-12.31,5.6-24.62,8.4-36.92,7.62-2.08,7.84,13.8,15.54,15.59,6.34,1.48,9.42-7.45,9.62-13.96.61-20.17,1.2-40.34,1.76-60.51,4.54,5.8,10.47,10.51,17.15,13.62,3.44-12.08-1.52-26.07-11.79-33.29-3.69-2.59-7.93-4.35-11.5-7.1-10.98-8.42-13.31-23.75-14.8-37.51,4.29,3.17,8.58,6.34,12.87,9.51-1.52-8.21-8.57-14.38-16.13-17.94s-15.89-5.15-23.65-8.25c-18.77-7.49-33.61-24.17-38.86-43.68,5,6.65,10.83,13.81,19.06,15.09-14.16-16.03-23.49-36.27-26.48-57.45,10.55,4.64,12.26,18.46,16.88,29.02,4.03,9.2,11.31,16.93,20.25,21.5.56-6.46-.97-13.09-4.31-18.65,9.34,4.3,16.9,12.33,20.65,21.9,3.37,8.61,4.11,18.92,11.02,25.06,6.5,5.78,16.11,5.74,24.49,8.03,10.62,2.91,19.99,10.13,25.5,19.67-.31-11.08-.63-22.17-.94-33.25,6.33-1.14,13.22,1.98,16.54,7.49,2.92-21.85-16.94-42.87-11.33-64.19,4.6,4.39,9.21,8.79,13.81,13.18,3.75-16.01-13.64-28.78-18.33-44.55-4.12-13.89,2.05-29.08-1.16-43.2-3.22-14.16-15.42-25.28-17.41-39.67,22.42,20.78,31.16,52.03,38.93,81.6,2.11-6.71,2.54-13.94,1.25-20.85,14.64,14.34,10.75,40.26,24.24,55.68,10.13,11.58,27.45,14.2,38.6,24.8,8.52,8.1,12.51,20,20.67,28.47,5.64,5.86,13.07,9.85,18.26,16.11,9.6,11.56,9.62,28.06,9.01,43.07-2.64,64.24-9.32,131.55-45.23,184.87-8.91,13.23-20.18,25.83-35.19,31.24-10.26,3.7-21.43,3.73-32.33,3.44-45.71-1.21-91.29-7.35-135.69-18.29-6.63-1.63-13.55-3.54-18.46-8.28-5.99-5.77-7.85-14.83-6.81-23.08s4.6-15.95,8.11-23.49"/>
      <path class="cls-1" d="M1242.33,500.83c4.02,4.78,8.24,9.71,13.93,12.28s13.3,2.04,17.11-2.9c3.36-4.36,2.8-10.44,2.72-15.94s1.12-11.99,6.08-14.38c5.93-2.86,12.5,2.09,17.22,6.68,1.92-9.44-1.58-19.18-6.37-27.54-4.8-8.35-10.94-15.93-15.07-24.64-1.26-2.65-2.17-6.21-.02-8.21,3.58-3.33,8.96,2.35,13.84,1.96,2.58-8.07-4.41-15.66-9.95-22.07-10.6-12.28-17.82-29.64-11.8-44.71.47-1.18,1.16-2.46,2.39-2.81,1.69-.48,3.22,1.05,4.32,2.42,2.25,2.82,4.5,5.65,6.75,8.47.38-20.01.45-41.24-9.91-58.37-10.14-16.78-29.92-29.24-31.01-48.82,11.48,18.61,26.22,35.21,43.34,48.82,3.74-1.35,4.3-6.25,4.77-10.2s2.93-8.83,6.83-8.06c3.19.63,4.25,4.53,5.27,7.62s4.1,6.53,6.93,4.9c.75-.43,1.27-1.15,1.75-1.87,7.59-11.59,5.59-26.93,1.59-40.19-4-13.27-9.78-26.52-8.85-40.35,6.07,6.69,12.39,13.15,18.93,19.37,3.49-5.16,2.75-12.16.45-17.95-2.3-5.79-5.95-10.98-8.16-16.81-2.9-7.66-3.16-16.02-3.39-24.2,5.22,12.55,15.97,22.09,27.72,28.93,11.75,6.84,24.66,11.38,37.09,16.89,2.25,1,4.6,2.12,5.96,4.17,1.2,1.8,1.45,4.06,1.66,6.21,6.67,67.71,8.8,135.87,6.36,203.86-.38,10.66-.91,21.5-4.38,31.58-5.32,15.44-17.25,27.94-30.96,36.81s-29.25,14.48-44.72,19.72c-8.6,2.91-17.25,5.74-25.44,9.65-12.26,5.86-23.41,14.12-36.3,18.43.68-2.76,1.37-5.52,2.05-8.28"/>
      <path class="cls-1" d="M1318.47,200.41c-3.15-3.56-6.3-7.12-9.45-10.68-1.49-1.69-3-3.4-4.03-5.4-.86-1.68-1.35-3.52-1.77-5.37-2.2-9.6-2.64-19.5-3.07-29.34-.03-.71.2-1.69.91-1.63.49.04.74.6.88,1.07,2.26,7.49,3.7,15.87,9.53,21.09,2.11,1.88,4.64,3.2,7.15,4.5,5.22,2.7,10.45,5.41,15.85,7.71,1.33.57,2.71,1.14,3.74,2.16,1.29,1.29,1.85,3.14,2.16,4.94.94,5.61-.14,11.42.91,17,.52,2.77,1.55,5.67.56,8.3"/>
      <path class="cls-1" d="M1324.75,486.56c-9.35,7.39-18.71,14.77-28.06,22.16-7.37,5.82-14.78,11.67-22.96,16.29-4.85,2.74-9.97,5.05-14.39,8.43-11.58,8.88-16.75,24.01-17.81,38.56s1.33,29.12,1.81,43.71c.53,16.13-1.3,32.24-3.12,48.28-3.03,26.65-6.17,53.75-16.83,78.36-3.02,6.97-6.64,13.74-8.55,21.1-1.81,6.98-2.02,14.29-1.41,21.47.07.77.15,1.57.49,2.26,1.29,2.57,5.01,2.23,7.8,1.54,31.95-7.97,64.88-11.96,97.81-11.83,30.59.12,63.26,3.31,89.78-11.94,1.03-.59,2.1-1.26,2.69-2.3.7-1.22.61-2.72.48-4.12-1.38-15.36-4.92-30.43-8.34-45.46-11.47-50.52-21.58-101.36-30.29-152.43-2.41-14.12-4.72-28.3-5.14-42.62-.26-8.91.2-17.83.06-26.75-.04-2.39-.15-4.9-1.36-6.97-2.16-3.71-7.31-4.78-11.4-3.48s-7.32,4.43-10.22,7.6"/>
    </g>
  </g>
  <g id="Layer_6" data-name="Layer 6">
    <path class="cls-3" d="M-11.06,53.49l6.15-17.45c1.5-4.26,3.02-8.56,5.34-12.44.29.79.59,1.58.88,2.36,2.76-2.52,3.08-6.71,4.89-9.99.96-1.75,2.35-3.22,3.7-4.68C15.01,5.79,19.93.08,24.16-6.12c-2.87-.64-5.75-1.27-8.62-1.91-3.39-.75-6.79-1.5-10.26-1.71-2.04-.12-4.13-.04-6.05.64s-3.68,2.04-4.48,3.92c-.48,1.13-.59,2.37-.7,3.58-.75,8.33-1.5,16.66-2.26,24.98"/>
    <path class="cls-3" d="M-10.32,130.74c1.3-10.66,11.15-17.77,17.98-26.05,4.74-5.75,8.19-12.44,11.61-19.07,6.79-13.19,13.62-26.48,17.7-40.74.63-2.19,1.29-4.56,3.08-5.97-.7,3.06-.6,6.31.29,9.32,4.27-4.61,4.62-11.54,7.29-17.23,1.55-3.3,3.87-6.16,6.17-8.99,2.36-2.9,4.71-5.79,7.07-8.69-1.81,10.71-4.29,21.31-7.42,31.71-1.51-3.48-1.22-7.43-.9-11.21-2.55,6.7-5.15,13.49-9.34,19.31-2.68,3.72-5.96,6.97-8.7,10.64-1.89,2.55-3.52,5.28-5.13,8.02-2.49,4.2-4.97,8.4-7.31,12.68-7.46,13.64-13.42,28.1-17.73,43.04,1.81-1.94,3.61-3.88,5.42-5.82,1.67,5.95-3.74,11.61-4.13,17.77-.29,4.66,2.32,9.08,2.4,13.76.07,4.44-1.87,9.74,1.39,12.76.79.73,1.82,1.21,2.45,2.09.96,1.35.67,3.28-.25,4.66s-2.35,2.31-3.74,3.21c-1.56,1.01-3.11,2.02-4.67,3.03-1.24.8-2.52,1.62-3.98,1.83-2.83.41-5.54-1.65-6.85-4.18s-1.55-5.47-1.84-8.32c-1.03-10.1-3.04-20.1-6-29.81"/>
    <path class="cls-3" d="M7.79,167.04c-.3,3.9,3.8,6.99,7.7,7.11s7.54-1.86,10.93-3.8c-.65,3.32-1.3,6.63-1.95,9.95,5.35-1.5,9.28-6.03,12.3-10.69s5.53-9.77,9.56-13.59c2.19,3.24,2.33,7.75.35,11.12,9.64-8.44,18.16-18.16,25.28-28.82-4.27,11.65-10.74,22.35-17.17,32.97,5.96-8.51,11.92-17.02,17.88-25.53,2.49-3.56,4.99-7.12,7.48-10.68,5.66-8.08,11.47-16.5,13.21-26.22,1.14-6.37.59-13.38,4.16-18.77,2.26-3.42,5.98-5.8,7.74-9.51-4.72,9.7-6.98,20.58-6.5,31.36,2.23-1.56,4.47-3.11,6.7-4.67-8.71,14.09-18.21,27.7-28.44,40.74,2.77.04,5.54-.88,7.72-2.58-3.11,6.43-10.56,9.34-15.7,14.3-3.17,3.07-5.45,6.92-7.68,10.72-2.24,3.82-4.49,7.64-6.73,11.46-1.05,1.79-2.17,3.66-3.92,4.78s-4.34,1.25-5.73-.3c-1.95-2.16-.98-6.57-3.72-7.55-5.72,2.79-9.99,8.39-11.15,14.64-.6,3.23,0,7.26,2.97,8.66.8.38,1.72.53,2.42,1.07,3.08,2.37-.85,9.02,2.69,10.6-.3,2.45-4.03,2.42-6.03.99s-3.88-3.67-6.33-3.42c-2.6.27-4.03,3.34-3.86,5.95s1.4,5.04,1.83,7.62c.7,4.2-.75,8.42-2.18,12.43,1.78.7,3.79.78,5.62.21-2.7,4.75-8.79,7.28-14.06,5.82-1.15-.32-2.42-.79-3.46-.21-.67.37-1.06,1.1-1.41,1.79-1.6,3.16-3.21,6.32-4.81,9.49-1.35,2.67-4.03,5.82-6.68,4.43-1.75-.92-2.05-3.25-2.12-5.23-.84-23.34.14-46.71,1.13-70.05.21-5.08.43-10.15.64-15.23-.77.61-1.55,1.21-2.32,1.82"/>
    <path class="cls-3" d="M11.88,240.57l8.92,6.28c-4.92,9.23-7.65,19.63-7.88,30.09,2.1-2.38,5.51-3.52,8.62-2.89-4.11,6.31-7.09,13.35-8.74,20.7,3.68-4.11,6.9-8.63,9.58-13.45-2.2,6.99-4.4,13.99-6.6,20.98-.5,1.6-1.01,3.33-.5,4.93.52,1.62,1.98,2.78,2.64,4.35.9,2.14.16,4.59-.58,6.79-3.27,9.69-6.53,19.38-9.8,29.06,4.93-3.83,10.32-7.08,16.02-9.65-1.15,4.94-2.3,9.87-3.45,14.81,6.13-5.7,12.25-11.41,18.38-17.11,2.34-2.18,4.88-4.46,8.04-4.97s6.95,1.67,6.84,4.87c5.44-5.17,11.55-9.64,18.14-13.24-2.63,6.56-3.94,13.64-3.84,20.71,18.18-15.49,19.4-43.33,33.41-62.67,1.23,4.66,1.08,9.67-.43,14.25,11.47-10.28,10.9-28,15.47-42.71,3.36-10.82,9.81-20.5,12.99-31.38-.8,5.82-1.6,11.65-2.4,17.47,8.33-16.63,19.43-31.87,32.71-44.89l-11.54,21.13,9.86-4.08c-3.12,4.45-7.77,7.52-12,10.93-14.57,11.75-24.85,28.7-28.55,47.04,1.11-4.08,3.34-7.84,6.38-10.77-1.17,6.07-3.77,11.76-5.91,17.57-6.14,16.66-9.13,35.57-21.82,47.98,8.91-1.27,12.53-14.69,21.52-15.08-.32,15.02-21.77,23.97-20.2,38.91,4.95-5.69,11.16-10.29,18.05-13.35-6.11,9.37-12.31,18.94-15.25,29.74-1.21,4.41-1.86,9.01-3.69,13.2s-5.16,8.08-9.63,9.05c-1.19.26-2.47.32-3.52.92-2.55,1.46-2.5,5.27-1.18,7.89s3.54,4.77,4.5,7.55c3.67-4.63,7.34-9.27,11-13.9-2.68,10.53-8.71,20.19-17,27.22-2.12,1.8-4.51,3.48-7.26,3.85-2.41.32-4.84-.4-7.27-.41-7.64-.02-13.46,6.75-17.23,13.38-.99,1.74-1.97,3.57-3.58,4.77-2.01,1.5-4.7,1.75-7.19,1.48-9.71-1.06-17.4-9.02-26.95-11.07-8.39-1.8-16.96,1.16-25.27,3.33-1.16.3-2.44.58-3.53.07-1.3-.62-1.86-2.13-2.22-3.52-2.01-7.74-1.65-15.88-1.27-23.86,1.06-22.15,2.17-44.33,5.37-66.28,1.86-12.72,4.42-25.37,5.21-38.2.63-10.09.16-20.24,1.18-30.3.97-9.61,3.31-19.09,6.92-28.05"/>
    <path class="cls-3" d="M43.97,421.97l23.03,1.29c.69.04,1.43.09,2,.49,1.27.89.99,2.79,1.14,4.33.55,5.8,8.33,7.79,13.97,6.34s11.08-4.81,16.85-4.01c.53,4.81,1.06,9.63,1.58,14.44,10.71-3.26,20.88-8.28,29.98-14.8-1.96,9.34-9.1,16.87-17.23,21.87s-17.33,7.91-26.18,11.48c-12.02,4.84-24.59,12.14-28.5,24.5-.26.81-.47,1.68-.22,2.49.38,1.21,1.67,1.89,2.91,2.17,5.3,1.21,10.32-2.43,14.89-5.38s10.83-5.31,15.11-1.96c-1.56,4.65-8.65,6.61-8.49,11.52.1,2.93,2.86,4.95,5.36,6.48,3.92,2.4,8.07,4.78,12.65,5.12s9.7-1.97,11.07-6.36c3.69-1.36,5.53,5.72,9.45,5.91,1.94.09,3.46-1.58,4.65-3.12,5.07-6.56,9.79-13.37,14.16-20.42,1.64,3.05,2.58,6.47,2.74,9.93,10.79-7.79,20.39-17.22,28.38-27.86-4.36,10.64-9.6,21.54-18.92,28.28-2.42,1.75-5.07,3.19-7.42,5.04-9.25,7.31-12.4,19.85-19.68,29.12,3.08-2.44,6.89-3.95,10.8-4.29-1.86,6.75-7.11,11.94-12.16,16.79-7.42,7.13-15.77,14.69-26.05,15.29-3.68.21-7.36-.5-11.04-.28s-7.62,1.66-9.37,4.9c17.98,5.87,36.85-3.94,55.44-7.43,4.67-.88,10.3-1.01,13.25,2.71-14.22,1.58-27.84,8.12-37.97,18.22-5.11,5.09-10.01,11.43-17.14,12.52-1.85.28-3.76.18-5.58.62-5.76,1.4-8.81,7.53-11.11,12.99,2.96,2.38,7.31,1.19,10.84-.21,14.74-5.87,28.69-13.72,41.35-23.29,1.31-.99,3.09-2.02,4.44-1.1,1.33.9,1.06,2.9.65,4.45-1.65,6.17-3.35,12.46-6.83,17.81s-9.13,9.7-15.51,9.97c-4.36.18-8.58-1.52-12.93-1.87-11.98-.96-22.14,8.07-33.27,12.58-11.62,4.7-24.64,4.48-36.68,7.97-13.01,3.78-25.15,11.92-38.69,11.57-1.01-.03-2.09-.13-2.86-.79-.91-.78-1.11-2.09-1.24-3.28-2.48-23.12-1.92-46.56,1.68-69.54,2.31-14.74,5.85-29.31,6.99-44.19,2.65-34.73-7.93-70.08-.89-104.2.57-2.74,1.29-5.57,3.08-7.73s4.91-3.45,7.47-2.32c3.31,1.47,3.96,5.8,4.15,9.42"/>
    <path class="cls-3" d="M108.93,606.4c8.42,2.24,9.44,14.41,5.19,22.02s-11.65,13.23-15.13,21.21c-4.38,10.06-3.44,24.53-13.61,28.64,11.72.14,23.45-4.1,32.38-11.69,1.79-1.52,3.95-3.3,6.2-2.63,3.2.94,3.06,5.81.96,8.41s-5.34,4.2-7.04,7.08c16.85,1.81,33-7.09,46.39-17.48,14.94-11.59,28.13-25.43,38.98-40.91-4.94,7.43-6.87,16.8-5.27,25.57.47,2.6,1.24,5.23.79,7.83-.94,5.38-6.91,9.41-6.27,14.83,4.39-.9,9.77-1.49,12.61,1.98,3.25,3.95.44,10.13-3.62,13.24-4.07,3.11-9.24,4.7-12.84,8.33-4.13,4.16-5.52,10.34-5.57,16.2-.04,4.62.87,9.68,4.41,12.66s10.22,2.07,11.36-2.41c.04,12.23-3.54,24.46-10.19,34.73,10.2-4.78,20.4-9.56,30.6-14.34,3.6-1.69,7.23-3.39,10.39-5.82,3.01-2.32,5.5-5.23,7.96-8.12,7.65-8.96,15.29-17.92,22.94-26.88-.12,6.38-4.68,11.67-8.54,16.75s-7.39,11.6-5.17,17.58,13.1,7.01,14.01.69c5.35,12.65,22.44,14,36.16,13.37-3.65,2.73-2.04,9.13,1.94,11.35s8.96,1.36,13.26-.15c10.92-3.83,20.13-11.31,28.77-19.01-2.15,4.76-2.74,10.2-1.65,15.31,13.94-9.12,24.63-23.08,29.8-38.91,1.69,4.56,3.37,9.11,5.06,13.67,17.17-13.77,25.17-35.62,36.83-54.28,2.77-4.43,6.49-9.14,11.7-9.49-8.8,19.81-13.63,41.11-18.41,62.26,11.27-13.4,20.59-28.45,27.57-44.51,6.37-14.65,10.89-30.32,20.05-43.4-5,16.55-7.39,33.87-7.08,51.16,5.2-1.31,9.75-5.01,12.09-9.84-2.58,6.08-5.22,12.55-4.3,19.09s6.91,12.85,13.4,11.58c1.68,5.98-1.3,12.22-1.53,18.43s5.49,13.68,10.96,10.74c-3.53,15.02-7.93,29.84-13.17,44.35-25.79,7.57-52.99,8.76-79.86,9.04-47.1.5-94.18-1.63-141.24-3.75-44.51-2.01-89.02-4.02-133.54-6.02-21.59-.97-43.24-1.95-64.79-.29-14.27,1.1-28.49,3.34-42.8,3.31-7.79-.02-16.34-1.05-21.73-6.68-4.5-4.7-5.77-11.55-6.68-17.99-5.04-35.76-5.22-72.21-.51-108.01,1.94-14.77,5.03-30.14,14.52-41.61,2.43-2.94,5.36-5.63,8.99-6.79,2.75-.88,5.7-.82,8.59-.75,10.22.25,20.43.51,30.65.76"/>
    <path class="cls-3" d="M467.09,744.54l10.09-2.36c.44-.1.91-.21,1.35-.07.61.19.98.78,1.29,1.34,3.06,5.57,4.57,11.99,4.33,18.34,4.37-3.56,8.75-7.13,13.12-10.69.52,3.84,1.04,7.68,1.56,11.52,8.52-2.21,5.37-17.27,12.98-21.69,1.88,2.16.97,5.44.33,8.23s-.37,6.55,2.36,7.43c3.61,1.16,5.71-3.79,7.87-6.92,2.51-3.63,6.96-5.54,9.49-9.15,1.88-2.7,2.5-6.05,3.6-9.14,3.25-9.1,10.71-15.96,17.9-22.42-.79,4.12-3.26,7.69-4.92,11.55s-2.41,8.63.07,12.02c.66.9,1.6,1.69,2.71,1.79,2.05.18,3.5-1.9,4.49-3.71,2.88-5.32,5.76-10.63,8.64-15.95,1.78,6.55,1.7,13.6-.22,20.11-.51,1.74-1.16,3.53-.9,5.32.3,2.05,1.72,3.72,2.76,5.51,3.05,5.23,2.79,12.22-.64,17.21,5.32-7.2,10.65-14.39,15.97-21.59,2.25,4.26,2.37,9.58.31,13.93-1.05,2.22-2.67,4.63-1.76,6.92.94,2.35,4.11,2.96,6.55,2.26s4.53-2.29,6.94-3.08c6.54-2.17,14.48,1.71,20.25-2.05,3.23-2.11,4.71-6.01,7.06-9.07s6.98-5.33,9.94-2.85c1,.84,1.61,2.09,2.67,2.84,2.78,1.98,6.5-.42,9.03-2.71-.82,4.56-1.64,9.12-2.46,13.68,7.03-2.3,12.38-9.03,13.05-16.39.12-1.38.13-2.88.97-3.98.83-1.09,2.26-1.5,3.55-1.99,7.67-2.9,12.73-10.57,14.68-18.53,1.95-7.96,1.29-16.31.61-24.48,1.8,1.91,3.61,3.81,5.41,5.72,5.64-16.63-.35-36.53-14.23-47.28-2.93-2.27-6.46-4.61-6.96-8.29,7.13,6.8,13.93,13.95,20.38,21.4,1.98,2.29,3.97,4.67,5.06,7.5,1.55,4.01,1.14,8.48.71,12.76-1.21,12.04-2.42,24.07-3.62,36.11,1.59-4.21,4.07-8.09,7.24-11.29.61,5.9,2.67,11.64,5.95,16.58.35-2.85.7-5.71,1.05-8.56,5.07,7.14,6.76,16.57,4.49,25.03,3.17.09,6.36-.84,8.98-2.62-.71,12.62-2.77,25.17-6.14,37.36-.26.93-.56,1.92-1.32,2.51-1.09.85-2.65.56-4,.26-12.02-2.62-24.47-2.09-36.77-1.62-45.3,1.75-90.64,2.6-135.98,2.55-22.31-.02-44.7-.27-66.78-3.48-1.41-.21-2.88-.45-4.04-1.28-3.81-2.74-1.43-8.71,1.24-12.57"/>
    <path class="cls-3" d="M696.12,750.65c4.71-4.09,9.43-8.17,14.14-12.26.35-.31.72-.62,1.17-.75,2.27-.67,2.84,3.12,1.93,5.31s-1.2,5.79,1.17,5.88c5.22-3.91,9.39-9.21,11.96-15.21,2.33,3.75,3.6,8.15,3.66,12.56,9.6-5.4,10.37-18.51,13.49-29.07.37-1.25.83-2.55,1.79-3.42,1.06-.96,2.53-1.25,3.86-1.76,7.48-2.87,9.75-12.15,10.98-20.06.92-5.91,1.72-12.42-1.49-17.46-.57-.89-1.28-1.79-1.31-2.84-.04-1.01.56-1.93,1.1-2.79,6.25-9.78,9.35-21.53,8.75-33.12,6.74,13.14-3.69,29.43.37,43.63,2.87-4.22,5.75-8.43,8.62-12.65-3.3,7.24-6.67,14.77-6.65,22.72.02,9.39,4.78,18.57,3.26,27.84,3.69-1.1,6.76-4.11,7.94-7.77,2.59,6.77-1.71,14.09-6.14,19.82s-9.5,12.13-8.57,19.31c5.81,2.12,10.19-10.22,15.61-7.25,1.08.59,1.78,1.71,2.75,2.47,2.78,2.17,6.91.92,9.78-1.12s5.35-4.83,8.71-5.89c-1.13,5.35-3.14,10.52-5.92,15.23,3.82,1.4,7.6-1.77,11.13-3.8,3.53-2.03,9.6-1.8,9.96,2.25,7.11-2.72,10.26-10.9,12.09-18.29,1.83-7.39,3.58-15.6,9.69-20.14.53,4.19,1.05,8.37,1.58,12.56.09.73.22,1.53.79,1.99,1.06.85,2.58-.11,3.58-1.03,5.88-5.45,11.82-10.97,16.18-17.68s7.06-14.87,5.74-22.77c-1.18-7.06-5.23-15.06-.8-20.67,4.05,8.2,8.1,16.39,12.15,24.59,3.44-9.58-5.28-19.37-5.3-29.54-.01-9.97,8.14-17.9,11.49-27.29-2.97,16.19-3.48,32.82-1.52,49.16,1.84-4.42,3.69-8.85,5.53-13.27-.33,9.09-.66,18.18-.99,27.26-.11,2.96-.16,6.14,1.48,8.61,2.11,3.17,6.24,4.12,9.94,4.99,1.37.32,2.86.75,3.68,1.89.78,1.08.77,2.51.73,3.83-.07,2.56-.14,5.11-.22,7.67-.15,5.19.85,11.93,5.93,12.99,2.81.59,5.55-1.01,8.2-2.1s6.2-1.48,7.96.79c1.21,1.56,1.04,3.76.77,5.71-1.61,11.38-4.96,22.52-9.89,32.91-.36.76-.76,1.55-1.43,2.06-.89.67-2.08.73-3.19.76-5.57.15-11.15.3-16.72.45-69.71,1.88-139.41,3.76-209.12,5.64-1.83-4.16-.13-9.55,3.77-11.9"/>
    <path class="cls-3" d="M906.23,740.08l12.26-10.48c1.45-1.24,2.96-2.51,4.78-3.08,5.11-1.58,10.25,3.12,11.92,8.21.66,2,1.23,4.4,3.18,5.2,2.56,1.06,5.45-1.54,8.13-.79,2.22.62,3.22,3.34,2.9,5.62s-1.55,4.32-2.38,6.46c-1.75,4.53-1.63,9.76.33,14.21,6.42-7.13,12.84-14.27,19.26-21.4,1.99-2.21,4.09-4.67,4.29-7.64.2-3-.53-7.55,2.47-7.69.82,5.43,2.79,10.68,5.73,15.32,6.19-9.72,12.39-19.43,18.58-29.15.72-1.12,1.61-2.36,2.94-2.49,1.3-.12,2.39.87,3.61,1.35,2.54,1,5.51-.47,7.1-2.68s2.12-5,2.57-7.68c2.67-15.73,4.37-31.62,5.09-47.56,2.44,1.04,4.87,2.08,7.31,3.12.77-13.96-8.56-26.25-12.6-39.64-1.02-3.39-1.74-6.96-3.7-9.9-1.74-2.61-4.32-4.54-6.4-6.89-3.87-4.39-5.85-10.12-7.3-15.78-2.2-8.57-3.43-17.39-3.66-26.23,2.18,15.4,4.85,31.87,15.59,43.12,1.18-3.26,1.96-6.67,2.31-10.13,1.18,5.95,2.37,11.9,3.55,17.85.55,2.78,1.11,5.58,2.26,8.18,1.7,3.83,4.59,6.99,6.98,10.44,6.7,9.68,9.39,22.06,7.31,33.65-2.09,11.65-8.66,23.91-3.51,34.57,2.97-4.28,6.95-7.86,11.52-10.36-.23,3.36-1.89,6.42-3.3,9.48s-2.61,6.45-1.88,9.73,4.15,6.16,7.36,5.13c1.11-.36,2.07-1.12,3.21-1.34,2.13-.41,4.12,1.18,5.49,2.87,2.07,2.56,3.53,5.61,4.21,8.84.74,3.49,1.85,8.33,5.4,8.07,5.59-.4,3.75-12.61,9.34-12.32,1.13.06,2.14.74,2.97,1.51,3.22,2.97,4.72,7.7,3.81,11.98,3.68.17,7.36.35,11.03.52,1.35.06,2.87.21,3.72,1.25.84,1.03.71,2.51.54,3.83-1.44,10.73-2.88,21.47-4.31,32.2-.19,1.44-.45,2.99-1.51,3.98-1.26,1.16-3.17,1.11-4.88,1.01-29.28-1.7-58.49,3.09-87.72,5.37s-59.59,1.85-86.58-9.61c2.7-6.21,7.43-11.51,13.28-14.92"/>
    <path class="cls-3" d="M1374.29,25.48c.42-1.49.03-3.09-.58-4.52-2.78-6.58-9.58-10.49-16.27-13.01-6.68-2.52-13.85-4.23-19.58-8.48,4.24,5.45,8.48,10.9,12.71,16.35-8.67-.89-17.24-2.68-25.53-5.35,4.57,8.29,18.42,9.72,20.04,19.05.27,1.57.12,3.17.19,4.76.4,10.56,9.76,19.21,10.09,29.77-4.98-2.45-8.91-6.96-10.66-12.22,2.15,6.31,4.3,12.62,6.45,18.94.49,1.43.89,3.23-.2,4.26-.78.74-2.02.73-2.92,1.32-1.48.96-1.57,3.08-1.39,4.84.4,3.94,1.29,7.83,2.63,11.56-1.23,1.24-3.19-.36-4.14-1.82-4.51-6.85-9.03-13.7-13.54-20.55,7.47,13.85,12.35,29.08,14.33,44.68.43,3.38.63,7.13-1.39,9.87s-7.12,3.14-8.4-.02c-.82,2.41.23,5.01.46,7.55s-1.18,5.76-3.72,5.57c-1.31-.1-2.58-1.14-3.81-.68-1.01.38-1.43,1.59-1.48,2.67-.25,4.98,4.15,8.74,7.67,12.27,8.38,8.41,13.53,19.97,14.18,31.83-1.55-1.51-3.52-2.58-5.63-3.08-.41,4.53-.2,9.12.63,13.59-5.53-.24-10.96-2.38-15.16-5.98-2.57-2.2-4.69-4.93-7.45-6.9-6.02-4.31-15.17-5.28-18.07-12.09,4.26,10.38,8.82,21.19,17.47,28.34,4.03,3.34,8.77,5.7,13.45,8.03,11.65,5.8,23.31,11.61,34.96,17.41.62.31,1.41.61,1.97.19.43-.32.51-.91.55-1.44,1.4-16.59,2.81-33.21,2.53-49.86-.48-28.92-5.96-58.44,1.48-86.4"/>
    <path class="cls-3" d="M1317.32,193.31c14.33,12.49,19.93,34.07,13.48,51.95-.49,1.36-1.32,2.92-2.77,3.03-.83.06-1.61-.4-2.31-.85-2.56-1.62-5.13-3.24-7.69-4.85,1.7,7.71,3.4,15.43,5.11,23.14,1.09,4.95,2.2,9.96,4.45,14.51,1.57,3.19,3.7,6.14,4.75,9.54s.78,7.56-1.89,9.91c-1.95-4.51-3.82-9.06-5.62-13.64-1.01,7.27-2.03,14.55-3.04,21.82-.56,4-1.1,8.18.21,12.01.83,2.43,2.38,4.59,3,7.08s-.12,5.66-2.53,6.56c-2.56.95-5.3-1.27-6.41-3.77s-1.28-5.35-2.47-7.81c-3.33-6.85-13.26-8.43-16.53-15.31-1.04,5.83-2.08,11.66-3.11,17.49-.19,1.07-.47,2.27-1.41,2.82-1.6.94-3.43-.74-4.51-2.24-4.79-6.6-9.59-13.2-14.38-19.79,5.77,8.11,9.8,17.46,11.71,27.22,1.06,5.41,1.57,11.17,4.66,15.74,1.6,2.37,3.82,4.27,5.52,6.58,4.81,6.5,4.76,16.17-.11,22.63-2.2-1.53-4.39-3.06-6.59-4.58-1.83,3.54-2.97,7.44-3.35,11.41-4.91-2.67-9.41-6.07-13.32-10.06,1.12,17.98,24.78,27.28,27.98,45.01.65,3.58-1.75,8.76-5.04,7.21-.21,4.85,3.55,8.81,6.72,12.49,6.06,7.06,10.76,15.28,13.76,24.08-3.42-.44-6.74-1.68-9.61-3.61,2.22,9.83,5.65,19.38,10.18,28.38,1.1,2.19,2.4,4.48,4.59,5.59,1.78.9,3.86.87,5.86.82,16.03-.4,32.06-.81,48.1-1.21,2.5-.06,5.2-.2,7.12-1.8,2.06-1.72,2.61-4.62,2.87-7.29.93-9.47-.11-19-.5-28.5-1.28-30.91,4.26-61.65,6.17-92.52,1.62-26.09.64-52.25-.34-78.37-.92-24.5-2.02-49.8-12.62-71.91"/>
    <path class="cls-3" d="M1309.44,464.47c-.89,3.87,1.05,7.76,2.75,11.36s3.22,7.81,1.56,11.42-8.04,4.5-9.19.69c-.79,6.58-1.58,13.17-2.37,19.75-.32-5.75-8.5-8.23-13.34-5.11s-6.62,9.35-7.03,15.09.12,11.66-1.65,17.13c-10.77-1.15-20.97-6.93-27.49-15.57-2.49-3.3-4.57-7.09-8.03-9.36-4.71-3.08-11.04-2.72-15.77-5.75-5.54-3.55-8.5-11.41-15.03-12.19-2.39-.28-4.89.5-7.17-.25-2.74-.91-4.3-3.72-5.6-6.3-4.44-8.81-8.89-17.63-13.33-26.44-2.16-4.29-4.39-8.67-7.91-11.94-6.93-6.44-19.03-9.28-20.14-18.67-2.02,7.2,2.3,14.65,7.43,20.09s11.38,10.09,14.7,16.78c5.64,11.35,2.25,27.22,11.97,35.34-6.22,2.74-14.34-.14-17.44-6.19,3.35,12.99,10.51,24.97,20.36,34.07,3.81,3.51,8.11,6.74,10.47,11.35,2.36,4.61,1.96,11.2-2.47,13.9-4.3-4.55-8.6-9.09-12.9-13.64-4.74,15.17-4.88,31.74-.41,46.98-6.87-16.43-15.67-32.06-26.17-46.45,1.52,8,3.03,15.99,4.55,23.99.72,3.8,1.35,8.07-.84,11.26-1.21,1.76-3.11,2.91-4.54,4.49-3.54,3.92-3.63,10.04-1.63,14.92s5.74,8.82,9.39,12.63c-21.02-9.73-18.02-43.1-36.2-57.45-11.75-9.27-30.51-8.89-38.73-21.4-5.63-8.56-5.05-21.72-14.06-26.6.61,4.32,1.22,8.64,1.82,12.96-7.53-8.97-16.31-16.89-26.01-23.44,8.5,8.74,14.08,20.27,15.64,32.37,18.09,10.58,36.18,21.16,54.27,31.74,7.32,4.28,15.71,10.74,14.2,19.08-6.41-.94-12.81-1.88-19.22-2.82,22.12,15.5,39.97,37.04,51.08,61.66,1.65,3.66,3.17,7.45,3.55,11.44-5-1.02-9.61-3.87-12.76-7.88-1.29,13.88-1.18,27.9.33,41.76-7.21-1.85-13.13-8.04-14.66-15.32-9.6,11.86-1.84,29.2-1.77,44.46.02,3.59-1.84,8.33-5.37,7.68-1.79-1.64-3.58-3.29-5.37-4.93-1.95,5.58-10.02,6.87-14.95,3.61s-7.18-9.34-8.21-15.16c-1.13,13.2-2.25,26.41-3.38,39.61-4.9-3.24-10.17-6.23-15.99-7.07-5.82-.84-12.32.89-15.82,5.6-2.07,2.78-2.91,6.3-3.12,9.75-.58,9.79,3.89,19.75,11.61,25.81,6.47,5.08,14.68,7.33,22.68,9.25,61.72,14.76,126.45,16.77,188.96,5.87,22.08-3.85,43.85-9.28,65.6-14.71,3.47-.87,7.06-1.79,9.87-4,3.87-3.04,5.65-8.02,6.78-12.81,2.8-11.81,2.88-24.08,2.55-36.21-1.54-55.18-11.47-110.1-9.29-165.26.95-24.11,4.2-48.56-.9-72.14-1.32-6.12-3.86-12.87-9.68-15.17s-13.79,4.62-10.08,9.66"/>
  </g>
  <g id="Layer_7" data-name="Layer 7">
    <path class="cls-4" d="M-15.18,717.67c6.29-5.58,5.7-17.91,13.79-20.21,2.22-.63,4.72-.28,6.74-1.4,2.34-1.29,3.32-4.21,3.29-6.88s-.87-5.26-1.22-7.91c-.96-7.1,1.72-14.6,6.97-19.47.63,2.61,2.17,5.87,4.83,5.46,2.7-.41,3.12-4.02,3.69-6.7.88-4.15,3.62-7.62,6.27-10.92,4.59-5.7,9.18-11.41,13.77-17.11.82-1.02,1.76-2.11,3.06-2.29,2.16-.3,3.78,2.18,3.75,4.37s-1.05,4.23-1.37,6.39c-.75,5.04,2.41,9.93,2.28,15.02-.16,6.32-5.29,12.61-2.71,18.38,2.23,5,9.22,6.58,11.22,11.67,1.75,4.45-1.12,9.47-.32,14.18.89,5.26,6.36,8.83,11.69,9.1s10.45-2.05,15.02-4.8c1.8-1.08,3.64-2.27,5.73-2.45s4.48,1.09,4.71,3.18c.27,2.38-2.13,4.07-3.45,6.06-4.07,6.14,2.36,15.17-1.36,21.53-2.21,3.79-7.82,6.55-6.52,10.74.32,1.03,1.06,1.89,1.89,2.58,5.24,4.33,13.13,2.27,19.24-.73,12.18-5.98,22.92-14.88,31.04-25.76,2.38-3.19,4.6-6.6,7.82-8.94s7.79-3.35,11.17-1.27c-1.44,5.21-8.82,8.37-7.75,13.67.29,1.41,1.19,2.65,1.43,4.07.77,4.56-5.13,7.49-6.25,11.98-.79,3.16,1.11,6.57,3.91,8.23s6.27,1.82,9.48,1.24c3.84-.69,8.73-1.99,10.92,1.24,1.71,2.51.27,5.89-1.19,8.56,8.41,3.91,16.51,8.52,24.17,13.75-23.29-.14-46.28,4.64-69.2,8.78-33.18,5.99-66.59,10.66-100.14,14-4.9.49-9.92.94-14.68-.31-11.41-3-18.03-14.55-23.41-25.04"/>
    <path class="cls-4" d="M-8.67,655.33c-2.18-3.08-.68-7.32.89-10.75,4.56-10.03,9.12-20.06,13.68-30.09,2.38-5.24,5.21-10.92,10.53-13.12,2.13-.88,4.53-1.13,6.49-2.34,6.35-3.93,3.66-13.64,5.67-20.84,2.26-8.11,10.7-12.74,18.64-15.54,7.94-2.8,16.67-5.01,22.24-11.33-11.57-4.63-23.59,9.53-35.78,6.96-1.86-.39-3.68-1.17-5.57-1.05-4.26.28-7.26,4.96-11.52,5.19-4.25.24-7.49-4.32-7.5-8.57s2.21-8.15,4.3-11.85,4.18-7.71,3.87-11.95c-.22-2.96-1.6-5.74-1.83-8.7-.7-8.94,8.83-15.52,10.48-24.34.96-5.18-.84-10.96,1.77-15.54,2.91-5.1,10.56-7.19,11.28-13.02.23-1.86-.36-3.74-.24-5.62.52-7.79,11.89-10.15,14.7-17.45-2.75-3.23-8.11-2.07-11.54.43s-6.2,6.07-10.21,7.47c-5.45,1.91-11.78-1.07-14.99-5.87s-3.79-10.95-3.06-16.68c.33-2.55.89-5.15.33-7.66-.35-1.56-1.12-3.03-1.27-4.63-.58-6.1,7.19-9,11.12-13.7,6.58-7.85,1.67-20.17,5.35-29.74,2.55-6.63,9.06-11.43,10.46-18.39-4.15-.63-8.18,1.76-11.19,4.69s-5.4,6.47-8.66,9.1c-4.41,3.56-10.31,5.22-15.93,4.48-5.27-.7-11.25-3.21-15.41.1-1.54,1.22-2.46,3.05-3.29,4.83-14.48,31.26-13.16,67.16-13.41,101.61-.17,23.84-1.24,47.66-2.3,71.47-1.2,26.8-2.39,53.6-3.59,80.4"/>
    <path class="cls-4" d="M1379.64,540.62c-2.13,5.71-5.35,11-9.45,15.51-1.04,1.14-2.29,2.31-3.83,2.38-1.35.06-2.58-.74-3.7-1.51-6.86-4.72-13.72-9.44-20.58-14.16,1.58,11.25,4.71,22.27,9.29,32.67,1,2.27,2.1,4.69,1.71,7.14-.43,2.73-2.64,4.97-2.92,7.72-.23,2.2.82,4.32,1.2,6.5s-.31,4.96-2.45,5.52c-.96.25-1.97-.02-2.92-.32-8.87-2.79-16.9-8.19-22.83-15.35-3.37-4.07-6.35-8.9-11.23-10.91-5.01-2.06-10.76-.6-16.1-1.5-4.07-.69-7.77-2.73-11.32-4.84-7.07-4.19-13.92-8.75-20.51-13.67-2.22.65-1.7,3.98-.42,5.9,5.35,7.98,15.13,11.6,22.39,17.9,12.57,10.91,16.41,28.54,19.54,44.9.66,3.47,1.01,7.77-1.87,9.81-1.54,1.09-3.55,1.14-5.44,1.15-4.21.02-8.42.05-12.63.07-5.53.03-11.29.01-16.26-2.43-12.14-5.96-13.72-22.53-21.91-33.3-6.63-8.73-17.3-13.2-27.47-17.29,4.43,5.44,8.86,10.88,13.3,16.31,3.85,4.72,7.76,9.55,9.96,15.24,2.21,5.72,2.64,12.21,6.15,17.24,2.8,4.02,7.38,6.79,9.28,11.31.69,1.65.97,3.58.21,5.2-1.96,4.22-8.24,3.01-12.41.95-16.35-8.08-31.25-19.09-43.77-32.36-2.55,1.43-1.6,5.31-.16,7.86,6.16,10.93,15.3,20.16,26.18,26.42,8.94,5.15,19.42,8.65,25.61,16.91,5.44,7.26,6.62,17.08,12.19,24.24,3.69,4.74,9.13,8.06,12.08,13.3s1.44,13.77-4.51,14.59c-3.89.54-7.26-2.49-10.95-3.83-11.57-4.22-22.46,8.22-34.66,9.96-10.96,1.56-21.6-5.78-32.63-4.8,3.09,7.56,11.56,11.4,19.55,13.08,7.99,1.68,16.46,2.01,23.71,5.79,1.64.85,3.33,2.08,3.65,3.9.39,2.23-1.44,4.19-3.15,5.67-7.8,6.73-16.55,12.37-25.9,16.69.84,3.23,4.7,4.46,7.96,5.15,21.97,4.65,44.17,9.33,66.62,8.82,14.69-.34,29.28-2.9,43.97-2.73,23.98.27,49.34,7.56,71.07-2.58,1.85-.86,3.7-1.88,5.02-3.44,4.43-5.22,1.16-13.05-1.59-19.32-16.42-37.42-7.11-80.49-9.51-121.29-.92-15.62-3.46-32.09,3.11-46.29"/>
    <path class="cls-4" d="M1376.88,517.88c-13.25-4.58-24.23-15.3-29.14-28.43-1.69-4.54-2.73-9.4-5.36-13.47-3.4-5.25-9.45-9.3-9.96-15.53,1.58-.89,3.5-1.14,5.26-.69,2.15-4.18-5.28-8.46-3.75-12.91.59-1.72,2.34-2.7,3.82-3.77,6.95-5.01,9.44-14.05,11.46-22.37.79-3.24,1.58-6.58,1.08-9.87-1.23-8.07-9.55-12.97-17.32-15.46-2.2-.7-4.51-1.36-6.21-2.92-1.86-1.71-2.68-4.25-3.34-6.69-1.33-4.94-2.25-9.99-2.78-15.08,2.53,5.26,8.57,7.81,14.28,8.98s11.75,1.45,16.94,4.12c1.21-13.59-4.12-26.81-9.36-39.4-2.46-5.93-5.23-12.23-10.66-15.65,3.42-3.33,9.24-3.83,13.17-1.13,2.18,1.5,4.27,3.97,6.87,3.46,2.9-.57,3.7-4.29,3.79-7.24.23-7.56-.17-15.14-1.2-22.64-.43-3.15-1.02-6.41-2.91-8.96-1.65-2.22-4.11-3.67-6.11-5.57-6.35-6.05-7.27-15.69-7.81-24.44,1.46,5.5,8.87,6.23,14.55,5.8,1.92-.14,3.85-.29,5.77-.43.97-11.83-1.17-23.91-6.15-34.69-2.15-4.65-4.78-10.27-1.93-14.52.97-1.45,2.47-2.47,3.57-3.83,1.96-2.41,2.51-5.63,2.99-8.7,1.68-10.63,3.35-21.49,1.55-32.1-2.1-12.34-8.83-23.87-8.63-36.39,1.64,2.02,3.28,4.03,4.92,6.05,3.12-2.93,3.04-7.78,3.62-12.02s3.18-9.21,7.45-8.93c4.26.28,6.17,5.38,7.01,9.57,8.8,43.83,11.28,88.66,13.74,133.3,1.98,35.97,3.96,71.96,3.66,107.98-.28,34.15-2.51,69.07,7.45,101.74"/>
  </g>
</svg>